<?xml version="1.0" encoding="UTF-8"?>
<svg id="Logos" xmlns="http://www.w3.org/2000/svg" viewBox="0 0 1750 284">
  <path d="M15.13,250.69l15.93-1.77c13.45-1.42,18.41-6.73,18.41-24.07V64.82c0-17.35-4.96-22.66-18.41-24.07l-15.93-1.77c-5.31-.71-6.37-5.31-6.37-10.27,0-4.6,1.77-8.14,5.66-8.14,17.17,0,28.5.71,60.89.71s43.72-.71,60.89-.71c3.89,0,5.66,3.54,5.66,8.14,0,4.96-1.06,9.56-6.37,10.27l-15.93,1.77c-13.45,1.42-18.41,6.73-18.41,24.07v160.02c0,17.35,4.96,22.66,18.41,24.07l15.93,1.77c5.31.71,6.37,5.31,6.37,10.27,0,4.6-1.77,8.14-5.66,8.14-17.17,0-28.5-.71-60.89-.71s-43.72.71-60.89.71c-3.89,0-5.66-3.54-5.66-8.14,0-4.96,1.06-9.56,6.37-10.27Z"/>
  <path d="M320.12,268.74c-18.94,0-28.85.71-39.47.71-5.66,0-6.37-2.48-6.37-8.14,0-6.02,2.12-8.85,7.08-9.56,12.39-1.42,12.74-2.48,12.74-16.99v-78.59c0-20.53-6.02-34.69-27.61-35.05-16.28-.35-32.92,12.39-32.92,26.2v87.45c0,14.51.35,15.58,12.75,16.99,4.96.71,7.08,3.54,7.08,9.56,0,5.66-.71,8.14-6.37,8.14-10.62,0-20.36-.71-39.3-.71h-.18c-18.94,0-33.1.71-44.43.71-4.96,0-6.73-2.12-6.73-8.14s2.12-8.85,7.08-9.56c21.24-2.83,22.3-3.54,22.3-17.35v-86.03c0-14.16-2.83-17.35-22.66-17.35-5.31,0-6.73-2.83-6.73-7.08,0-5.66.71-8.85,7.08-10.97l56.64-19.83c3.54-1.06,6.02-1.42,7.43-1.42,4.6,0,7.43,3.19,7.43,8.14s-3.19,12.04-3.89,18.41c13.63-16.46,38.41-27.26,58.77-27.26,36.11,0,52.04,24.07,52.04,60.19v83.2c0,13.81,1.06,14.52,22.3,17.35,4.96.71,7.08,3.54,7.08,9.56s-1.77,8.14-6.73,8.14c-11.33,0-25.31-.71-44.25-.71h-.18Z"/>
  <path d="M463.31,146.96c0-74.35,56.29-131.7,129.22-131.7,49.56,0,65.49,19.82,74.35,19.82s7.08-12.74,18.06-12.74c6.73,0,9.91,3.19,9.91,9.56v72.57c0,5.66-2.83,9.2-7.79,9.2s-7.79-2.83-10.27-8.85c-16.64-43.19-47.44-68.68-83.2-68.68-45.67,0-79.3,39.65-79.3,93.11,0,57,40,101.96,90.63,101.96,31.51,0,58.77-16.99,81.43-50.98,2.48-3.9,4.96-5.31,8.5-5.31,5.31,0,9.2,5.31,7.79,10.62-12.74,50.63-61.25,88.86-113.29,88.86-72.57,0-126.03-53.81-126.03-127.45Z"/>
  <path d="M713.25,232.98c0-21.95,13.1-38.59,36.46-46.38l47.09-15.58c9.91-3.19,11.68-7.08,11.68-15.58v-20.89c0-13.81-7.79-25.14-24.78-25.14-21.95,0-27.97,15.93-32.22,30.09-3.89,13.1-11.68,19.82-21.95,19.82s-18.76-8.14-18.76-20.53c0-23.37,28.32-47.79,76.47-47.79,27.26,0,67.97,12.04,67.97,53.46v86.03c0,7.43,3.19,10.62,7.43,10.62,5.31,0,7.43-6.02,13.45-6.02,4.96,0,7.08,3.54,7.08,7.08,0,10.97-12.74,32.22-37.17,32.22-17.7,0-31.68-9.74-37.7-25.84-11.51,16.99-28.85,25.84-48.32,25.84-29.03,0-46.73-16.99-46.73-41.42ZM808.48,213.16v-26.55l-30.8,10.62c-12.39,4.25-19.12,12.74-19.12,23.01,0,11.33,7.79,19.47,21.24,19.47,16.29,0,28.68-13.45,28.68-26.55Z"/>
  <path d="M1011.05,269.8c-3.36,0-4.6-2.12-4.6-8.14s1.42-8.85,4.96-9.56c14.87-2.83,15.58-3.54,15.58-17.35v-79.66c0-18.06-5.66-35.05-27.26-35.05-16.64,0-33.28,10.27-33.28,24.43v89.92c0,13.81.71,14.52,15.58,17.35,3.54.71,4.96,3.54,4.96,9.56s-1.24,8.14-4.6,8.14c-7.97,0-17.88-.71-31.33-.71h-10.44c-19.12,0-33.28.71-44.61.71-4.96,0-6.73-2.12-6.73-8.14s2.12-8.85,7.08-9.56c21.24-2.83,22.3-3.54,22.3-17.35V72.97c0-19.12-4.25-24.07-21.6-24.43-5.66,0-7.79-2.12-7.79-7.79s1.77-8.14,7.08-9.91l47.09-16.64c9.2-3.19,14.52-4.6,17.7-4.6,4.96,0,7.43,3.19,7.43,9.2,0,5.66-2.12,10.62-2.12,21.24v72.22c14.69-12.39,36.29-21.6,57.35-21.6,35.05,0,50.98,24.07,50.98,60.19v83.9c0,13.81,1.06,14.51,22.3,17.35,4.96.71,7.08,3.54,7.08,9.56s-1.77,8.14-6.73,8.14c-11.33,0-25.49-.71-44.61-.71h-10.44c-13.45,0-23.37.71-31.33.71Z"/>
  <path d="M1096.72,182.71c0-52.75,36.82-91.69,89.22-91.69s89.21,38.94,89.21,91.69-37.17,91.69-89.21,91.69-89.22-38.94-89.22-91.69ZM1222.04,182.71c0-43.9-14.16-72.93-36.11-72.93s-36.11,29.03-36.11,72.93,14.16,72.93,36.11,72.93,36.11-29.03,36.11-72.93Z"/>
  <path d="M1289.87,182.71c0-52.75,36.82-91.69,89.21-91.69s89.22,38.94,89.22,91.69-37.17,91.69-89.22,91.69-89.21-38.94-89.21-91.69ZM1415.2,182.71c0-43.9-14.16-72.93-36.11-72.93s-36.11,29.03-36.11,72.93,14.16,72.93,36.11,72.93,36.11-29.03,36.11-72.93Z"/>
  <path d="M1489.18,217.05v-83.2c0-9.56-2.48-11.33-12.39-11.33h-3.89c-5.66,0-8.5-3.19-8.5-7.79,0-4.25,2.83-7.08,7.79-10.97l52.75-41.07c2.12-1.77,4.6-3.54,8.14-3.54,3.89,0,6.37,2.83,6.37,7.08,0,6.9-.35,17.7-.71,31.68l47.44-1.24c7.43-.35,10.27,5.31,10.27,10.97,0,6.73-3.54,15.93-12.39,15.93-7.97,0-34.52-.89-45.85-1.24-.71,25.84-1.24,58.24-1.24,95.06,0,16.28,9.2,24.07,21.24,24.07,8.5,0,14.52-3.19,19.12-7.79,2.12-2.12,5.31-5.31,9.56-5.31,4.6,0,7.08,3.54,7.08,7.79,0,12.39-16.29,38.23-49.92,38.23-39.65,0-54.87-27.97-54.87-57.35Z"/>
  <path d="M1622.64,264.85c-4.25-1.77-7.08-5.66-9.2-12.39l-5.31-23.72c-1.77-7.79.35-13.1,5.66-14.16,4.25-1.06,7.43,1.41,9.91,5.31,16.99,26.55,31.51,36.11,49.92,36.11,16.64,0,26.55-7.79,26.55-20.18s-9.91-20.18-37.88-29.74c-37.17-13.1-54.87-31.15-54.87-56.29,0-34.34,27.61-58.77,66.2-58.77,15.58,0,36.11,3.54,50.63,8.5,4.96,1.77,7.43,4.96,8.14,10.27l3.19,28.32c.71,6.73-1.42,10.62-6.37,11.33-4.6.71-8.5-2.12-10.27-7.79-6.37-18.41-25.84-32.22-45.32-32.22-15.58,0-25.49,7.79-25.49,19.47s9.91,19.82,35.76,28.68c41.07,13.81,57.35,30.8,57.35,59.48,0,34.69-27.26,57.35-69.74,57.35-14.87,0-29.74-2.83-48.86-9.56Z"/>
</svg>