<?xml version="1.0" encoding="UTF-8"?>
<svg id="Logos" xmlns="http://www.w3.org/2000/svg" viewBox="0 0 1240 200">
  <path d="M1130.33,139.44c-.7,0-1.36-.09-2.01-.16-.8-.09-1.58-.18-2.36-.18-.26,0-.53.01-.79.03h-.29c-.66.01-1.42-.13-2.24-.29-.93-.18-1.88-.36-2.85-.36-.21,0-.43,0-.63.03-.46-.03-2.7-.52-3.97-.88-.24-.52-.56-1-1.13-1.34-.57-.35-1.18-.53-1.71-.66-.31-.76-.72-1.8-1.4-2.6.03-.05.07-.09.11-.14.43-.61.57-1.36.42-2.04.24-.23,1.27-1.26,1.44-1.41l.05-.02c.39-.12.87-.26,1.34-.56.38-.24.72-.48,1.05-.71.79-.55,1.17-.81,1.71-.92.15-.03.33-.05.57-.05.34,0,.69.03,1.03.05.47.03.95.06,1.43.06.36,0,.71-.02,1.06-.06.62-.08,1.28-.1,1.95-.1,0,0,.56,0,.62,0,.63.03,1.06.06,1.49.1l.72.02c.55,0,1.86-.02,2.8-.19.46.05,1.53.34,1.87.49.36.16.75.25,1.14.25.62,0,1.23-.2,1.7-.61.14-.12.7-.18,1.18-.24.59-.06,1.26-.14,1.98-.36.9-.27,1.78-.64,2.66-1,1.38-.58,2.58-1.08,3.77-1.12.82-.03,1.57-.45,2.03-1.11h.66c1.13,0,2.09-.72,2.44-1.74.28-.11.68-.23.95-.32.41-.12.78-.24,1.1-.36.43-.17.77-.39,1.02-.56h.07c.6,0,1.2-.21,1.67-.61.18-.15.34-.33.47-.52.64-.07,1.24-.38,1.67-.87.21-.07.42-.17.62-.3.43-.29.75-.69.94-1.15.52-.15,1-.46,1.35-.92.36-.29.74-.62,1.05-1.11.35-.55.76-1.41,1.14-2.2.17-.36.33-.7.47-.97l.27-.51c1.32-2.46,1.69-3.25,1.83-3.86.09-.43.09-.84.08-1.17.18-.32.3-.64.33-.95.07-.53.05-1.15.02-1.76,0-.05,0-.09,0-.13.19-.32.31-.66.36-1.04.2-1.6-.12-3.17-.4-4.56-.22-1.1-.43-2.13-.34-2.88l.12-.98c.21-1.66.43-3.35.55-5.07.43-.39.73-.93.81-1.55.1-.73.13-1.74.14-2.78.01-.62.02-1.45.07-2.05.34-.32.66-.74.83-1.33.19-.71.21-3.2.14-4.7.38-.4.63-.92.69-1.49.05-.42.04-.88,0-1.34.13-.22.24-.47.31-.77.18-.72.32-1.46.45-2.19.22-1.23.42-2.3.87-3.26l.38-.79c.85-1.76,1.52-3.2,1.7-4.39.09-.65.05-1.28,0-1.83,0-.09-.02-.17-.02-.26.26-.24.64-.54.81-.68.58-.45,1.12-.88,1.37-1.74.12-.43.14-.83.13-1.17.38-.18.71-.46.96-.81.23-.31.38-.66.45-1.03.1-.16.19-.34.27-.55.44-1.22.88-2.29,1.53-3.43.09-.08.18-.17.26-.25,1.22-.06,2.22-.96,2.42-2.14,0,0,1.74-2.02,1.77-2.08.11-.08.21-.16.3-.26l3.54-3.54c.19-.19.35-.41.47-.64,1.1-.43,2.48-1.11,3.48-2.05,1.82-.29,3.26-1.69,4.24-2.66.05-.06.11-.11.16-.16.55-.06,1.07-.15,1.77-.43,1.4-.55,2.61-1.32,3.79-2.07.57-.36,1.14-.73,1.72-1.04.67-.37,1.34-.54,2.13-.73.69-.17,1.37-.35,2.04-.61.72-.28,1.92-.74,2.76-1.68.82-.12,1.52-.36,2.11-.57.26-.09.52-.19.79-.25.58-.15,2.81-.43,4.49-.43.12,0,.24,0,.33,0,.32.32.73.63,1.3.78.35.1.75.15,1.2.15.32,0,.67-.03,1.02-.06.16-.02.32-.03.48-.04.3.16.7.42,1.1.66.69.43,1.38.84,1.81,1.02.66.29,1.33.52,1.98.76,1.07.38,1.99.7,2.83,1.26.05.03.1.07.16.11.02.24.08.49.17.73.08.2.18.38.3.55-.46.27-.79.62-1.04.96-.28.04-.57.07-.8.1-.89.11-1.72.22-2.13.33-.12.03-.27.07-.54.21-.38-.2-.79-.3-1.2-.3-.45,0-.9.12-1.3.35-.46.27-.82.67-1.04,1.14h-.45c-.63,0-1.25.23-1.72.65-.02.02-.04.04-.06.06-.06,0-.12,0-.18,0-.25,0-.51.02-.77.03-.15,0-.3.02-.45.02-.09,0-.19-.02-.29-.02-.7,0-1.4.28-1.89.78-.29.3-.5.65-.63,1.04-1.11.21-2.14.84-3.07,1.41-.26.16-.5.3-.7.41-.21.11-.6.35-.99.6-.19.12-.38.24-.54.34l-.44.09c-1.42.28-2.4.52-3.93,1.51l-.66-.16c-.21-.05-.41-.08-.62-.08-.59,0-1.17.2-1.64.59-.53.44-.87,1.06-.93,1.74-.23.06-.44.16-.64.28-.47.04-.92.21-1.31.51-.46.34-.79.83-.94,1.36-.03.02-.06.04-.09.06-.13.09-.25.19-.36.3-.28.02-.57.08-.85.2-.65.27-1.13.78-1.39,1.39-.49.14-.93.43-1.27.82-.47.55-.68,1.28-.59,1.99-.46.29-.83.64-1.14.99-.31-.12-.63-.18-.95-.18-.42,0-.85.11-1.23.31-1.02.55-1.44,1.4-1.64,1.87-.1.09-.23.2-.35.31-.65.58-1.2,1.08-1.54,1.78-.65,1.39-.22,2.42.09,2.92.09.15.21.29.35.42-.49.77-1.16,1.78-1.74,2.65-.14.19-.51.6-.84.98-.93,1.07-1.18,1.35-1.36,1.98-.25.9-.19,1.88-.13,2.92.03.46.07.92.04,1.26-.05.35-.28,1.3-.51,2.24-.63,2.62-.74,3.1-.52,3.88.49,1.79.15,3.84-.21,6.01-.05.31-.1.61-.15.92-.85,1.44-.55,2.66-.26,3.3.2.45.52.82.92,1.09-.18.29-.3.6-.36.94-.14.77-.08,1.43.03,1.97-.2.3-.35.65-.41,1.03-.06.34-.04.69.03,1.02-.29.42-.44.92-.44,1.45v1.86c0,.19.02.38.06.56-.11.52-.07,1.08.16,1.6.16.36.39.66.67.9.03.14.11.46.12.5-.5.87-.68,1.74-.79,2.37-.35.33-.69.75-.86,1.36-.19.68-.38,1.3-.57,1.91-.18.59-.37,1.18-.55,1.81-.69,2.43-1.25,4.05-2.39,6.17-.38.71-.67,1.31-.94,1.89-.43.93-.78,1.66-1.5,2.68-.76,1.08-1.35,2.08-1.94,3.1-.35.6-.7,1.21-1.11,1.84-.09.1-.42.38-.77.7-.6.55-1.24,1.15-1.64,1.64-2.26,2.7-4.31,4.54-6.63,5.96-.89.55-2.92,1.8-3.8,1.98-.26-.09-.53-.13-.8-.13-.51,0-1.02.15-1.46.45-.79.54-1.72.72-2.9.96-.79.16-1.59.32-2.39.57-.7.23-.97.31-1.27.31-.11,0-.23-.01-.36-.03-.12-.02-.25-.03-.37-.03-.62,0-1.22.22-1.69.63-.04.04-.08.07-.12.11h-2.66c-.67,0-1.28.25-1.74.67-.67.06-1.33.19-1.93.3-.37.07-.71.15-.98.17-.58-.12-1.16-.19-1.72-.19-1.35,0-2.41.34-3.27.62,0,0-.65.2-.68.21-.35.08-.55.11-.75.11l-.6.02Z"/>
  <path d="M692.35,110.64c-.41-.93-1.31-1.51-2.29-1.54-.3-.18-.64-.29-.99-.33-.02-.46-.17-.92-.43-1.31.23-.87-.01-1.8-.64-2.46-.18-.19-.4-.35-.62-.47.03-.38.05-.76.08-1.14.04-.67.08-1.33.18-1.9.21-1.21,0-2.29-.17-3.15-.08-.38-.19-.95-.15-1.13.87-.94.94-2.37.15-3.37-.03-.13.05-.6.1-.92l.09-.65c.07-.54.07-1.06.05-1.55.02-.02.03-.04.05-.06.49-.57.71-1.33.59-2.08-.46-2.91-.48-6.76-.07-10.83.01-.1.01-.2.01-.3l-.25-17.33c.03-.46.04-1.08-.03-1.66-.02-.16-.11-.65-.22-1.15l-.15-.74c-.11-.58-.31-1.3-.53-2.02-.21-.7-.44-1.5-.49-1.96-.13-1.16.03-1.46.05-1.49.62-.67.83-1.61.56-2.48-.04-.14-.09-.27-.16-.39.23-.48.31-1.01.22-1.55l-.35-2.09c-.08-.51-.31-.96-.65-1.33-.03-.19-.07-.38-.13-.57-.55-1.81-.6-3.57-.66-5.44-.04-1.31-.08-2.67-.31-4.02-.2-1.18-.18-2.63-.16-4.02.02-1.48.05-3.01-.2-4.38-.1-.83.05-5.2.23-7.01.43-.37.91-.87,1.11-1.62.21-.73.25-1.55.29-2.27,0-.16.01-.33.02-.48.08-.07.17-.15.26-.23.59-.52,1.41-1.25,2.01-2.16.33.14.68.22,1.04.22.21,0,.42-.03.63-.08.04,0,.07-.02.11-.03.19.21.41.44.66.7.3.31.59.61.77.82.04.1.07.22.11.33.16.47.32.96.6,1.41.28.46.56.87.82,1.26.66.98,1.05,1.56,1.32,2.58.2.74.26,1.68.32,2.67.06,1.01.13,2.04.34,3.1.65,3.25.89,7.07.65,10.48-.02.12-.06.3-.11.51-.22.96-.55,2.4-.16,3.84.11.4.29.72.49.98-.09.25-.16.47-.19.68-.13.73-1.39,9.99-.65,12.66.02.06.04.13.06.19-.06.17-.09.29-.1.36-.3,1.37-.18,3-.07,4.58.08,1.13.16,2.31.05,3.06-.12.79.14,1.58.69,2.16.49.51,1.17.8,1.87.8.09,0,.43-.02.5-.02.27,0,.43.01.6.02.31.02.62.03.92.03.34,0,.66-.02.97-.07.27-.04.82-.21,1.39-.42.97.4,1.93.4,2.56.4,0,0,.5,0,.5,0,.26,0,.53,0,.8.03.4.05.82.07,1.25.07,1.44,0,2.95-.25,4.27-.48.94-.16,1.92-.33,2.51-.33.96.15,1.75.21,2.63.21.82,0,1.63-.06,2.44-.12.68-.05,1.35-.11,2.03-.11.32,0,.65.01.97.05,1.26.13,4.43.45,6.75.45.77,0,1.44-.04,1.94-.11,1.01-.15,2.03-.22,3.13-.22,2.12,0,4.26.27,6.25.57.31.05.6.06.88.06.78,0,1.41-.15,1.91-.27.29-.07.54-.13.71-.13.84,0,1.72-.4,2.2-1.08.19-.27.35-.58.44-.9.21-.32.38-.68.44-1,.41-2.32.67-6.06.37-8.47-.16-1.33-.19-2.83-.22-4.42-.05-2.83-.11-5.75-.91-8.54-.08-.28-.1-.51-.12-.87-.03-.46-.08-.92-.19-1.44-.18-.79-.07-2.32.02-3.67.06-.88.13-1.78.13-2.64.38-.45.61-1.03.61-1.67v-1.05c0-.48-.13-.92-.35-1.31.1-.17.18-.36.25-.57.33-1.15.48-2.47.62-3.63.05-.45.1-.88.16-1.27.14-.97.06-1.85-.14-2.67.27-.36.44-.78.5-1.23.12-1,.06-2.01,0-2.99-.05-.8-.1-1.63-.02-2.11.09-.51.83-2.29,1.22-3.25.13-.31.25-.61.37-.9.27.11.57.17.88.17h.05c.6,0,1.16-.21,1.6-.56.12.05.25.09.38.13l1.44,3.12c.25.53.66.95,1.17,1.22.05.62.33,1.22.79,1.66.24.23.51.4.81.52.02.11.04.23.06.37.04.25.08.5.14.76.06.26.18.54.34.8,0,.29-.02.61-.03.92-.65.47-1.07,1.23-1.07,2.09v1.22c0,.09,0,.17.01.26-.02.18-.02.35,0,.53,0,.09,0,.21-.02.32-.02.36-.05.86.04,1.4.11.65.35,1.33.61,2.06.15.42.4,1.11.43,1.36.03.23,0,.48-.01.73-.02.48-.04.96,0,1.42.09,1.04.79,1.9,1.74,2.23,0,.03,0,.06.01.09.03.32.16.66.34.98-.04.46-.13,1.11-.22,1.64-.05.06-.11.12-.16.18-.32.35-.63.69-.83,1.2-.25.66-.22,1.2-.19,1.49,0,.62.22,1.23.64,1.7.11.13.24.25.38.36.04.25.07.49.08.72-.66.47-1.1,1.24-1.1,2.12v.35c0,.51.15.99.41,1.39-.04.2-.06.38-.06.53,0,.43.14.88.38,1.29-.02.19-.07.42-.13.71-.1.48-.19.95-.23,1.44-.02.16-.01.32,0,.48-.04.4.01.81.16,1.19-.65.65-1.22,1.61-.83,2.89.13.42.32.78.59,1.07-.02.65.02,1.3.06,1.93.04.66.08,1.34.03,1.79-.08.65.1,1.31.49,1.83-.59.92-.61,1.82-.49,2.46v.16c-.03.23-.04.47-.03.66.01.18.04.35.08.52l.63,14.68c.03.31,0,.48,0,.65-.02.43-.05.96.03,1.53.2,1.33.08,3.39-.32,5.39-.12.58-.03,1.17.24,1.69.45.89.47,2.26.49,3.71.02,1.3.03,2.64.33,4.02.18.85.63,1.44.96,1.82-.21,1.41-.06,3.27.14,4.73-.47.31-.84.77-1.02,1.33-.18.52-.44,1.75.44,2.93l.09.38c-.05.04-.11.08-.16.12l-.46-.39c-.47-.39-1.06-.6-1.66-.6-.3,0-.61.05-.9.16-.87.33-1.5,1.09-1.65,2.01-.07.45-.06.87-.04,1.24-.13.15-.25.32-.36.51-.1-.02-.2-.04-.3-.05-.14-.03-.28-.03-.42-.03-.47,0-.92.13-1.31.36-.23.03-.47.09-.64.15-.24.09-.45.2-.64.31-.28-.34-.63-.62-1.06-.85-.39-.21-.81-.32-1.24-.32-.22,0-.44.03-.65.08-.02-.02-.04-.04-.05-.06.02-.44,0-.85-.03-1.22-.02-.29-.05-.58-.02-.85.11-1.09-.48-2.12-1.47-2.59-.11-.05-.22-.09-.33-.13-.01-.04-.02-.09-.03-.13-.1-.34-.21-.66-.33-.99-.06-.16-.14-.38-.19-.54.34-.47.61-1.1.61-1.64v-.35c0-.56-.18-1.1-.51-1.54-.03-.06-.06-.14-.1-.22,1.53-5.99,1.9-13.2.91-18.59,0-.17.17-.82.26-1.14.08-.31.11-.36.16-.46.33-.68.38-1.52.08-2.21-.3-.69-.85-1.28-1.57-1.51-.25-.08-.71-.15-.97-.15-.52,0-.95.13-1.29.28-.23-.03-.46-.04-.69-.04-.47,0-.88.06-1.29.13-.12.02-.24.05-.38.05-.74-.12-1.41-.16-2.1-.16-.79,0-1.62.06-2.45.12-.74.05-1.49.11-2.24.11-.46,0-.93-.02-1.39-.09-.84-.12-1.79-.18-2.99-.18-1.01,0-2.07.04-3.15.08-1.02.04-2.05.08-3.04.08-.3,0-.61,0-.9-.01-1.95-.06-4.11-.2-6.28-.33-2.42-.15-4.84-.3-7.02-.36-.74-.02-1.48-.03-2.21-.03-.89,0-4.4.04-5.27.04-.54,0-1.65-.01-1.67-.01-.74,0-1.44.32-1.92.86-.34.28-.86.74-1.09,1.54-.32,1.16-.08,3.8-.08,3.82.06.47.22.92.52,1.75.09.27.19.52.24.68.19.79.41,1.61.63,2.43.75,2.86,1.53,5.82,1.74,8.62.06.81.03,1.65,0,2.5-.03.9-.05,1.8,0,2.68.02.39.13.78.32,1.12.4.72,1.01,1.16,1.58,1.47-.01.06-.02.13-.03.19-.52.77-1.53,2.57-.23,4.13-.05.1-.11.21-.17.32-.49.05-.94.26-1.34.6-.13.11-.24.23-.33.35-.68.19-1.29.66-1.62,1.35-.08.16-.14.33-.19.5-.1-.01-.19-.02-.29-.02-.24,0-.48.03-.72.1-.95.28-1.64,1.06-1.82,2-.4-.23-.85-.35-1.3-.35-.31,0-.62.05-.92.17-.48.18-.88.5-1.17.9-.03-.08-.06-.15-.09-.22"/>
  <path d="M975.25,169.38s0-.03,0-.03c0,0,0,.02,0,.03M928.38,137.71c-.39-.19-.8-.28-1.23-.28-.5.01-.89.06-1.2.12-1.55.32-2.23,1.23-2.56,1.67,0,.02-.2.11-.36.18-.51.23-1.04.47-1.47,1.12-.23.35-.36.8-.39,1.26-.08.05-.67.43-.67.43-.13.09-.24.18-.34.27,0,0,0,0,0,0-.53.11-1.02.38-1.39.79-.46.51-.7,1.17-.67,1.85-.45.3-.6.52-.74.74-.29.43-.42,1.01-.4,1.58-.28.41-.74,1-1.02,1.27-.46.21-.85.55-1.13.99-.36.59-.47,1.3-.31,1.98.06.26.02.5-.14,1.17-.1.4-.19.82-.27,1.27-.43.52-.95,1.18-1.02,2.12-.05.65.09,1.23.23,1.71-.19.54-.18,1.04-.1,1.42.08.39.26.86.66,1.28.06.45.14.97.38,1.51.44,1,3.7,4.55,3.73,4.58.46.48,1.05.91,1.63,1.32.11.08.22.16.33.24.22.66.63,1.07,1,1.32.51.35,1.19.51,1.82.44.51.25,1.08.62,1.63.97.96.62,2.05,1.31,3.24,1.73.85.3,6.82,1.96,8.22,1.92.35,0,.71-.06,1.1-.13.31-.06.64-.15.96-.24.22-.06.45-.12.67-.17,2.55-.26,4.67-.57,6.7-.98,2.05-.42,3.97-.93,5.85-1.57.38-.13.7-.33.98-.59.1-.01.21-.03.31-.04.39-.05.77-.11,1.12-.18.47-.1.88-.22,1.23-.37.92-.41,1.49-1.18,1.94-1.8l.15-.2c.36-.29.71-.58,1.07-.86,1.32-1.06,2.7-2.15,3.93-3.55.68-.76.97-1.54,1.19-2.1.07-.19.17-.44.22-.51.44-.56.63-1.26.54-1.93.1-.27.18-.61.17-1.01-.02-.86-.25-1.69-.45-2.42-.07-.26-.15-.53-.2-.77.32-1.07.23-2.09-.27-3.08-.14-.27-.32-.52-.54-.73-.11-.1-.22-.19-.34-.28-.18-1.69-1.37-2.56-1.92-2.94-.22-.52-.61-.96-1.12-1.25-.41-.23-.87-.34-1.34-.33-.23-.38-.52-.82-.91-1.25-.34-.36-.84-.75-1.84-1.51-.16-.12-.31-.23-.43-.33-.66-1.25-1.06-1.84-2.37-2.43-.16-.08-.38-.17-.7-.35-.33-.18-.63-.42-.95-.65-.88-.66-2.12-1.57-3.68-1.73-1.48-1.5-3.64-1.46-4.82-1.43-.38,0-.94.02-1.13-.03-.42-.12-.87-.13-1.3-.05-.35.07-.69.21-.98.42-.19.14-.35.29-.5.46-.03,0-.07-.01-.1-.02-1.06-.22-1.42-.29-1.99-.17-.33.07-.68.23-.99.44l-1.68-.68c-.48-.2-1-.24-1.49-.14-.31.06-.6.18-.88.36-.02.01-.04.03-.06.04-.11-.02-.22-.04-.35-.05-.53-.03-1.24.02-1.94.09-.11.01-.23.02-.34.04M930.2,119.98c.36.15.74.21,1.14.19,1.61-.08,3.21-.23,4.8-.37,1.82-.16,3.55-.32,5.28-.38.55.55,1.34.84,2.16.73,4.19-.54,8.68.75,12.57,2.01,1.64.54,4.71,1.52,5.17,2.76.42,1.14,1.56,1.82,2.73,1.68,1.03,1.11,1.99,2.34,2.99,3.62,1.09,1.39,2.23,2.83,3.51,4.21,1.1,1.18,1.27,1.5,1.93,3.18.27.69.53,1.47.79,2.25.37,1.11.74,2.24,1.15,3.15.21.48.53.87.93,1.24-.05.18-.09.38-.11.6-.07,1.08.27,2.42.64,3.84.17.67.35,1.31.41,1.79.09.63.13,1.29.17,1.96.1,1.57.21,3.34.87,4.98,0,0-.02.02-.03.03-.35.4-1,1.15-1.08,2.29-.06.85.18,1.62.39,2.3,0,.01,0,.02,0,.03-.24.33-.48.7-.64,1.13-.38,1.08-.29,2.15-.22,3.1.01.17.03.37.04.55-.03,0-.05.01-.08.02-.14.03-.28.07-.41.12l-1.14.43c-1,.38-1.66,1.34-1.66,2.42v.34c-.46.44-.74,1.06-.77,1.73l-.05,1.17c-.63.51-1.01,1.3-.96,2.16l.03.59c-1.08.33-1.84,1.33-1.83,2.48v.57c-.07.07-.13.14-.19.21-.04.01-.08.03-.13.04-.33.12-.63.31-.87.55,0,0-.02,0-.02,0-.21.04-.42.11-.62.21-.82.41-1.37,1.22-1.44,2.13-.01.14,0,.28,0,.43-1.72,1.6-3.93,3.43-6.31,4.39-.57.23-1.02.65-1.3,1.16-1.23.46-2.29,1.1-3.25,1.68-.54.32-1.06.64-1.6.9-.38.19-1,.49-1.49.66-.63-.32-1.58-.64-2.8-.39-.44.09-.88.25-1.32.47-.14.07-.26.15-.38.23-.35-.08-.74-.1-1.12-.02-.35.07-.74.23-1.08.44-.07-.02-.13-.03-.19-.03-.87-.12-1.7-.01-2.37.07-.02,0-.05,0-.08,0-.4-.28-.89-.53-1.53-.56-.31-.02-.67,0-1.06.08-.16.03-.33.08-.51.13-.36-.22-.79-.4-1.32-.44-.34-.02-.69,0-1.07.08-.23.05-.48.12-.73.19-.93-.5-2.36-1.2-3.88-.89-.3.06-.58.16-.84.28-.88-.3-1.77-.71-2.7-1.13-.62-.28-1.24-.57-1.88-.83-.26-.55-.71-1.01-1.29-1.27-.17-.08-.32-.15-.46-.19-.68-.25-1.41-.27-2-.29-.21,0-.41,0-.58-.04-.75-.31-5.98-3.33-7.09-4.11-.08-.11-.18-.25-.28-.38-.28-.38-.56-.74-.72-.91-.64-.67-1.42-.94-1.97-1.12.02-.17.01-.34-.01-.52-.09-.79-.54-1.49-1.22-1.91-.1-.06-.18-.13-.26-.19-.09-.07-.21-.16-.36-.26-.12-.2-.28-.4-.46-.56-.62-.58-1.31-.93-2.04-1.06-.24-.5-.45-1-.66-1.52l-.46-1.09c-.25-.57-.6-.89-1.13-1.37l-.04-.04c-.19-.62-.37-1.5-.54-2.37-.28-1.45-.58-2.94-1.14-4.21-.24-.54-.47-.92-.7-1.2-.01-.15-.02-.33-.03-.56-.08-1.42-.34-2.74-.6-4.02-.6-3.01-.88-4.8.45-6.61.61-.83.67-1.94.16-2.83l-.04-.06s1.98-5.59,1.99-5.65c.4-.13.77-.37,1.08-.68.46-.49.7-1.12.7-1.77.27-.43.59-1.03.71-1.75.91-.88,1.68-2.09,1.96-3.36,1-.71,1.77-1.59,2.44-2.36l.56-.64c1.67-1.83,5.05-4.22,7.53-5.65.3-.17.82-.52,1.27-.83.13-.09.25-.17.35-.24.19-.03.36-.05.54-.07.33-.04.66-.09.97-.15.28-.06.54-.13.79-.21.84-.3,1.47-1,1.66-1.87.02-.1.04-.19.05-.29.26-.33.44-.71.51-1.11l1.58-.32c1.17-.24,2.03-1.26,2.07-2.45,0-.29-.03-.57-.11-.84.06-.02.11-.03.16-.04"/>
  <path d="M842.51,103.78c.29.16.58.29.95.37,2.14.45,4.91.67,8.24.67,1.93,0,4.03-.08,6.07-.23.59-.04,1.31-.2,2.41-.46.62-.14,1.25-.31,1.6-.34.25-.02.5-.03.75-.03.36,0,.72.01,1.08.03.42.02.84.03,1.25.03.29,0,.57,0,.86-.02.93-.05,1.75-.59,2.17-1.42l.42-.85c2.26-.7,3.26-2.54,3.96-3.84.16-.3.33-.61.52-.92.19-.3.34-.54.48-.75.49-.76.82-1.29,1.19-2.39.35-.39.57-.83.67-1.33.19-1.09.14-3.53.02-4.44-.08-.51-.28-.96-.6-1.34-.32-1.36-.73-2.61-1.13-3.82-.25-.77-.51-1.55-.75-2.38-.26-.89-.88-1.42-1.38-1.83-.03-.02-.06-.05-.09-.08,0-.04,0-.08-.02-.13-.12-.78-.34-2.22-2.04-3.51-.23-.17-.5-.31-.78-.4-.41-.45-1.07-1.18-2.12-1.55-.24-.73-.8-1.31-1.52-1.59-.3-.11-.62-.17-.93-.17-.38,0-.77.09-1.12.25-.92-.21-1.9-.5-3.01-.9-.49-.18-.83-.26-1.15-.33-.34-.38-.79-.75-1.44-.93-.37-.1-.76-.15-1.22-.15-.28,0-.58.02-.89.04-.35-.22-.73-.34-1.15-.38-.52-.05-1.13-.09-1.74-.09-.47,0-.91.02-1.31.06-.4-.25-.87-.39-1.36-.39h-2.8c-.19,0-.37.02-.55.06l-.09-.64c-.18-1.22-1.18-2.14-2.41-2.21-.05,0-.23,0-.28,0-.79,0-1.44.19-1.9.33-.17.05-.4.12-.47.12-.17-.04-.35-.05-.51-.05-.89,0-1.71.46-2.19,1.24-.11.18-.31.39-.49.6-.27.32-.52.63-.71.9-.38.05-.7.1-.89.15-.56.16-.99.45-1.33.77-.19-.04-.38-.06-.57-.06h-.02c-.41-.26-.89-.4-1.38-.4-.09,0-.18,0-.26.01-.79.08-1.49.52-1.92,1.18l-1.4,2.2c-.37.58-.49,1.28-.34,1.95.03.12.06.25.11.36-.48.3-.99.69-1.37,1.29-.55.86-.77,1.54-.98,2.23-.5.62-.84,1.24-1.02,1.87-.44.41-.73.98-.8,1.6-.03.23-.02.46.02.68-.11.71.08,1.45.54,2.02l.11.14c-.06,2.02.85,3.79,1.61,5.27.42.81.81,1.57,1.01,2.28.1.37.27.68.47.94-.33.85-.19,1.83.39,2.56.4.5.96.82,1.56.92.14.09.3.18.48.25.25.1.54.19.84.28.21.06.53.16.63.22.22.16.39.37.68.76.47.61,1.11,1.45,2.29,2.16.79.47,1.69.74,2.56.99.51.15,1.32.39,1.66.59.17.69.61,1.28,1.23,1.64.4.23.84.35,1.29.35.11,0,.22,0,.33-.02M854.55,123.41c-1.42,0-2.89-.15-4.65-.37l-2.25-.27c-1.39-.16-2.85-.33-4.09-.52-.52-.08-1.08-.11-1.65-.15-.49-.03-1-.06-1.39-.13-.15-.12-.31-.27-.44-.38-.43-.38-.8-.71-1.43-.88-.3-.08-.58-.14-.83-.2-.11-.02-.2-.04-.29-.06,0-.03-.09-.13-.22-.32-.45-.65-1.18-1.06-1.98-1.11-.05,0-.1,0-.15,0-.26,0-.51.04-.75.11-.34-.6-.92-1.06-1.62-1.23l-.21-.05c-.3-.44-.64-.73-.84-.91-.51-.45-1.16-.67-1.81-.67-.09,0-.18,0-.27.01-.51-.36-1.04-.68-1.56-1-.53-.32-1.32-.81-1.78-1.19-.1-.74-.47-1.23-.74-1.49-.42-.42-1.08-.69-1.74-.86-.31-1.12-1.34-1.9-2.49-1.9-.09,0-.18,0-.27.01,0-.02-.27-.46-.45-.75-.44-.72-1-1.62-1.93-2.33l-.67-.49c-.52-.37-1.61-1.15-1.75-1.54.13-.8-.13-1.58-.7-2.16-.26-.26-.56-.46-.9-.58-.11-.63-.44-1.18-.91-1.57-.39-1.22-1.18-2.21-1.74-2.91-.22-.28-.56-.7-.63-.86-.03-.16-.05-.51-.09-.87-.06-.68-.15-1.36-.28-1.84-.15-.54-.43-.93-.82-1.47-.1-1.23.13-3.7.42-4.76.1-.37.22-1.09-.05-1.87.18-.25.35-.56.45-.94.24-.85.16-1.74.09-2.51-.02-.17-.03-.34-.05-.5.41-.56.68-.95.8-1.55.17-.79.1-1.61.04-2.34,0-.1-.02-.19-.03-.29.04-.04.09-.08.13-.11.87-.74,1.55-1.32,1.82-2.28.19-.68.13-1.3.09-1.74l-.14.31c.03-.07.08-.2.15-.36.02,0,.04-.02.06-.03,1.28-.72,1.81-1.79,2.07-2.59.36-.11.7-.29.99-.55.52-.46.83-1.1.87-1.78.11-.1.28-.22.4-.31.3-.22.67-.5,1.03-.86.55-.05,1.08-.27,1.5-.64.95-.84,2.15-2.06,2.87-3.66.07-.03.13-.05.19-.08.07,0,.13,0,.2,0,.67,0,1.27-.28,1.76-.78.11-.11.2-.22.28-.34.03,0,.05-.02.07-.02.37-.12.7-.24.95-.38.46-.25.77-.55.99-.77.4-.18.76-.47,1.03-.84.1-.14.2-.3.31-.45.06-.09.11-.19.19-.28.23.07.48.1.72.1.29,0,.58-.05.85-.14.12-.04.24-.07.36-.09.43-.06.83-.24,1.17-.49.11-.09.26-.2.43-.35.25-.07.49-.17.71-.31.87-.55,1.37-1.19,1.64-1.82.7-.16,1.4-.28,2.11-.4l1.33-.24c.57-.11.95-.35,1.59-.75.05-.03.11-.07.16-.1.63-.07,1.48-.08,2.25-.08h1.64c1.35,0,2.77-.03,4.01-.26.7-.13,1.16-.3,1.52-.48.22.02.5.05.89.1,1.56.2,3.09.2,4.56.21,3.6,0,5.9.11,7.76,1.89.49.47,1.13.72,1.79.72.24,0,.48-.03.72-.1l.38-.11,3.57,1.87c.15.08.31.14.47.19h.01c.13.11.27.2.42.28l1.5.78c.18.09.37.16.56.22.21.22.5.48.75.62,1.23.68,1.49,1,1.54,1.08.56,1.01,1.58,1.64,2.76,2.36.59.36,1.76,1.08,2.11,1.52.03.61.28,1.19.71,1.64.33.35.76.6,1.22.72,1.91,2.94,3.57,5.84,4.11,8.76.11.6.43,1.13.87,1.5.2,1.29.62,2.45,1,3.52.21.59.42,1.17.57,1.74.09.34.28,1.07.36,1.58-.6.75-1.29,2.06-.74,4.05.04.15.09.28.15.41-.16.33-.24.7-.24,1.09,0,.36.08.77.22,1.15-.03.06-.05.11-.07.17-.29.83-.35,1.67-.4,2.35,0,.02,0,.05,0,.07-.35.33-.68.76-.85,1.37-.16.57-.15,1.13-.11,1.6-.28.3-.54.68-.68,1.17-.19.7-.15,1.35-.1,1.85-.74.89-1.81,2.29-1.62,4.02.02.16.05.33.08.49-.47.8-1.04,1.6-1.64,2.42-1.08,1.48-2.18,3-2.86,4.82-.35.27-.76.66-1.12,1.24-.49.57-2.4,2.52-3.4,3.47-.08,0-.16,0-.23,0-.13,0-.48.03-.6.04-.64.09-1.2.42-1.6.88-.32.06-.6.15-.86.22-.17.05-.35.09-.53.14-1.1.24-1.88,1.14-2.01,2.2-.02.02-.04.03-.07.04-.32-.05-.62-.08-.93-.08-.62,0-1.22.12-1.82.37-.54.22-.97.61-1.25,1.09h-.06c-1.4,0-2.59.68-3.54,1.22,0,0-.01,0-.02.01-.47-.32-1.04-.5-1.6-.5-.39,0-.78.08-1.12.26-1.18.61-2.7.9-4.64.9"/>
  <path d="M1048.05,174.39c-.49-.69-1.28-1.08-2.1-1.08-.19,0-.39.02-.59.07h-.01c-.2,0-.66-.25-1.2-1.02-.37-.52-.76-.89-1.04-1.15-.05-.55-.28-1.08-.65-1.5-.02-.03-.05-.05-.07-.08v-1.18c0-.95-.53-1.83-1.37-2.28-.13-.07-.26-.13-.39-.17-.01-.02-.03-.03-.04-.05.38-.7.42-1.54.08-2.29-.13-.29-.31-.55-.53-.77,0-.69.01-1.39.02-2.09.02-1.51.05-3.03,0-4.54-.02-.46-.16-1.85-.32-3.4-.15-1.48-.4-3.86-.44-4.67.67-2.62.84-7.67-.29-10.79.28-2.19.37-4.44.45-6.62.1-2.52.19-4.89.56-7.12.09-.56.06-1.06.03-1.46,0-.13-.02-.25-.02-.37.02-.25,0-.51-.06-.76.06-.25.09-.5.07-.76,0-.21,0-.43.02-.63.03-.67.09-1.81-.45-2.91.34-1.39.03-2.83-.18-3.81-.05-.25-.11-.49-.13-.67-.47-7.48.51-14.91,1.44-22.09l.4-3.08c.07-.55.11-1.2.16-1.86.03-.49.06-1,.11-1.48.79-1.17.53-2.34.36-2.85-.33-.97-1.21-1.65-2.23-1.74-.19-.02-.38-.02-.57-.02-.24,0-1.21.04-1.21.04-1.07-.13-2.09-.18-3.34-.18-.92,0-1.86.03-2.79.06-.84.03-1.67.06-2.46.06-1.27,0-2.17-.08-2.75-.24-.22-.06-.5-.1-.73-.1-.67,0-1.31.23-2.36.64-.25-.08-.51-.16-.66-.22-.42-.27-.9-.41-1.4-.41h-.37c-.6,0-1.17.2-1.62.57-.59-.26-1.44-.6-2.47-.6-.27,0-.55.02-.84.08-.26.05-.62.18-.99.35-.62-.28-1.34-.43-2.16-.43-.27,0-.55.02-.83.03-.19.01-.38.02-.57.02-.07,0-.14-.01-.22-.01-.66,0-1.36.24-1.83.68-.02.02-.04.04-.06.06h-.14c-3.82,0-14.61-.95-16.69-1.85-.15-.07-.34-.12-.54-.17-.03-.02-.05-.04-.08-.06-.01-.12-.03-.24-.05-.36-.06-.31-.16-.56-.23-.73.08-.7-.13-1.42-.58-1.97-.05-.06-.11-.12-.16-.18v-1.77c0-.3-.05-.58-.14-.84.05-.09.11-.19.16-.29.52-.94.86-1.58,1.06-2.11.05-.02.4-.19.4-.19.88-.36,1.47-1.17,1.58-2.1.47-.07.94-.11,1.41-.11.42,0,.83.03,1.24.09.12.02.25.03.37.03.22,0,.44-.03.65-.08.34-.02,1.24-.13,2-.25.11-.02.23-.05.34-.08.12,0,.23-.02.38-.04.02,0,.08-.02.14-.03.29.03.81.18,1.08.3.44.48,1.06.78,1.73.83.06,0,.12,0,.17,0,.75,0,1.47-.33,1.96-.9.04-.05.15-.13.26-.22.17.04.41.09.61.14.66.15,1.47.34,2.35.34.51,0,1-.06,1.46-.19.52-.14.92-.42,1.21-.7.52.08,1.25.23,1.91.36,1.23.25,2.49.51,3.62.51.54,0,1.01-.06,1.45-.18.56-.15.97-.46,1.27-.76.4.03.89.13,1.41.22.82.15,1.74.33,2.69.33.49,0,.96-.05,1.41-.14.48.23,1.04.39,1.69.39.49,0,.91-.1,1.26-.19.35.12.77.22,1.26.22.26,0,.6-.03.97-.14.81.37,1.85.62,3.18.62.55,0,1.11-.04,1.63-.11.79-.1,1.63-.35,2.53-.62.66-.2,1.47-.44,1.88-.48.29-.03.57-.04.84-.04.54,0,1.04.05,1.53.09.61.05,1.2.1,1.83.1.69,0,1.33-.06,1.97-.17,1.14-.21,2.41-.32,3.89-.32s3.02.1,4.51.2c.86.06,1.71.11,2.56.15.21.01.43.02.65.02.53,0,1.08-.03,1.64-.05.49-.02.98-.05,1.47-.05,1.04,0,1.67.13,1.93.4.49.52,1.18.81,1.88.81.26,0,.52-.04.78-.12,1.44-.46,3.48-.74,5.34-.74.61,0,1.2.03,1.76.1,1.95.24,4.02.37,5.98.37s3.83-.13,5.51-.37c.3-.04.65-.18.95-.35.5,0,.99-.15,1.42-.44.14-.09.27-.2.39-.32.03,0,.06,0,.1-.02,1.21.7,2.5.81,3.47.81.11,0,.22,0,.32,0,.37.52.93.9,1.6,1.03l1.12.22s.06.07.09.11c-.43.8-.41,1.77.06,2.55.47.78,1.31,1.26,2.22,1.26.04,0,.58-.03.79-.03.04.38,0,.98-.03,1.55-.06.89-.12,1.89.05,2.85.05.28.2.69.4,1.11-.16.41-.24.8-.28,1.14-.13.06-.26.14-.37.22-.34.24-.6.52-.77.73-.2-.06-.38-.08-.55-.09-.04,0-.08,0-.12,0-.45,0-.94.15-1.35.37-.49,0-.96.14-1.38.41-.21-.13-.44-.24-.72-.32-.3-.08-.62-.12-.96-.12-.19,0-.4.01-.6.03-.12-.02-.25-.03-.37-.03-.62,0-1.24.23-1.72.64-.13.11-.24.23-.35.36-.17-.03-.37-.04-.58-.04-.14,0-.27,0-.41.02-.76-.36-1.49-.47-2.01-.55-.2-.03-.46-.07-.55-.1-.48-.49-1.08-.72-1.76-.72h-.02c-.5,0-.94.17-1.33.46-.14,0-.25-.01-.35-.02-.28-.02-.56-.03-.82-.03-.22,0-.44.01-.66.03-.54.06-1.1.14-1.66.23-.92.14-1.79.27-2.56.27-.63,0-1.1-.09-1.48-.27-.35-.17-.73-.24-1.1-.24-.51,0-1.01.15-1.43.43-.46-.23-1.04-.46-1.75-.46-.24,0-.66.06-.9.13-.28.08-.54.21-.78.38-.19.14-.66.36-1.71.36-.81,0-1.76-.13-2.91-.4-.3-.07-.62-.11-.94-.11-.25,0-.48.02-.7.06-.28-.18-.6-.3-.94-.36-.14-.02-.42-.05-.56-.05-.61,0-1.11.17-1.47.33-.42-.09-.82-.13-1.22-.13-.52,0-1.05.08-1.82.21h-.26c-.4,0-.9-.01-1.38-.03-.52-.02-1.03-.04-1.39-.04-.52,0-1.49,0-2.29.77-.3.29-.53.64-.66,1.04-.18.53-.44,1.78.45,2.97l.47,1.98c.96,3.98,1.95,8.09,2.3,11.92.03.33,0,.73-.03,1.12-.05.8-.11,1.7.08,2.55.13.6.43,1.01.8,1.52l.03.05c.02.19.03.4.04.65.02.57.05,1.29.3,2.09.37,1.21.32,2.82.25,4.52-.06,1.68-.13,3.41.2,5.1-.67,1.09-1,2.75.25,5.11-.24,1.17.1,2.13.28,2.63.13.79.08,1.73.03,2.72-.02.47-.05.94-.05,1.42-.67.48-1.08,1.26-1.08,2.1v1.49c0,.87.43,1.64,1.09,2.11,0,.43,0,.85.04,1.27.08.96.2,1.88.32,2.78.3,2.27.56,4.23.09,6.53-.22,1.08-.28,2.8-.36,5.11-.02.6-.04,1.15-.06,1.59-.1,2.07-.06,4.14-.02,6.15.04,1.62.07,3.24.03,4.85l-4.03,11.61-1.77,1.33-.15-.21Z"/>
  <g>
    <path d="M18.8,155.66c-.3-.21-.63-.35-.97-.42-.01-.05-.03-.11-.04-.16-.18-.63-.54-1.08-.88-1.4.01-.23.03-.49.05-.7.06-.82.13-1.67,0-2.5,0-.04-.01-.07-.02-.11.43-.59.6-1.36.43-2.11-.2-.84-.79-1.5-1.56-1.81.27-.3.51-.67.64-1.14.01-.04.6-2.31.31-4.31,1.2-2.52.18-5.31-.52-7.26-.27-.74-.54-1.5-.62-1.99-.08-.57-.04-1.22.02-1.91.06-.84.12-1.7-.03-2.6-.48-2.91-.3-6.17-.09-9.62.17-2.9.34-5.89.12-8.89-.08-1.06-.34-3.49-1.2-5.49.39-2.09.37-4.23.35-6.31-.02-2.07-.04-4.03.34-5.72.09-.37.22-.93.35-1.42.15-.19.35-.41.5-.58.41-.46.74-.83.91-1.46.18-.68.14-1.3.09-1.77.2-.3.47-.7.71-1.05.12-.02.23-.04.32-.06.46-.13.82-.34,1.12-.58.04.02.08.03.11.05.31.13.64.19.96.19.14,0,.28-.01.43-.03.48,1.33.8,2.85,1.14,4.44.37,1.77.76,3.61,1.37,5.28.24.64.68,1.32,1.14,2.04.18.27.36.54.5.77,0,.02,0,.04,0,.06-.05.48-.11,1.13.09,1.84.26.96.97,1.55,1.72,2.18.07.06.13.11.2.17.25,1.18.36,2.85.29,4.3-.27.36-.43.76-.5,1.2-.38,2.55.4,3.9,1.3,4.98.01-.03.02-.05.03-.05,0,0,0,.08,0,.15-.03.4-.08.95.03,1.55.68,3.89.78,8.26.88,12.49.07,3.03.15,6.17.43,9.17.09,1,.01,1.86-.08,2.85-.14,1.42-.29,3.02.13,5.01.16.77.59,1.51,1.04,2.29.1.16.19.32.27.46-.02.34,0,.66.04.96-.17.24-.31.51-.41.84-.26.91-.14,1.69.12,2.34-.15.16-.27.34-.37.54-.41.08-.8.26-1.13.53-.6.49-.95,1.22-.95,2v.22c-.63.21-1.15.65-1.47,1.22-.06,0-.13,0-.19,0-.16,0-.33.02-.5.05-.28.05-.55.16-.79.29-.11-.17-.25-.37-.38-.57.01-.31.02-.54,0-.76.09-.65.22-1.92-.71-2.96-.56-.62-1.35-.97-2.21-.97-.1,0-.29.01-.39.02-.68.08-1.3.43-1.73.96-.43.54-.62,1.22-.54,1.91.08.71.03,1.69-.03,2.64-.02.27-.03.54-.05.82-.03-.02-.06-.05-.1-.07"/>
    <path d="M21.71,60.18c-.81-.17-1.82-.2-2.57-.2-.6,0-1.62.02-2.45.16-.31-.05-1.01-.17-1.48-.26-.1-.07-.22-.14-.35-.22-.22-.46-.51-.84-.79-1.15,0-.15-.02-.28-.03-.4.36-.72.37-1.58,0-2.31-.09-.18-.2-.35-.32-.49.61-.53,1.15-1.07,1.38-1.88.28-.98.4-1.06.93-1.44.56-.4,1.41-1.01,2.27-2.24.03-.05.06-.1.1-.16l1.02-.1c.4.58,1.04,1,1.78,1.1.22.03.46.04.7.04.26,0,.54-.02.81-.04.02,0,.03,0,.05,0,.07.18.16.34.25.48.18.26.38.47.56.66-.12.64-.02,1.31.34,1.87.11.16.23.32.36.45.02.67.21,1.46.63,2.37-.1.21-.19.43-.27.65-.13-.02-.27-.03-.4-.03-.54,0-1.07.17-1.52.5-.83.61-1.22,1.65-1,2.65"/>
    <path d="M159.89,182.41c-.32-.24-.71-.41-1.12-.48-.27-.04-.52-.06-.74-.06-.07,0-.13,0-.2,0l-1-1c-.49-.5-1.16-.76-1.83-.76-.38,0-.76.08-1.12.25-.16.08-.32.17-.45.28-.07-.02-.14-.04-.22-.05-.39-.07-.76-.09-1.12-.09-.18,0-.36,0-.52.02-.02-.18-.05-.35-.1-.52-.22-.79-.72-1.3-1.22-1.73,0-.3-.03-.61-.12-.94-.25-.85-2.2-2.91-3.48-3.83-.01-.74-.34-1.43-.9-1.91-.35-.3-.63-.69-.98-1.18-.47-.65-1.06-1.47-1.96-2.2-.52-.42-1.08-.85-1.65-1.3-2.16-1.67-4.61-3.56-5.42-5.5-.41-.99-1.43-2.04-3.5-4.14-1.37-1.38-3.23-3.27-3.82-4.24-.77-1.26-1.79-2.23-2.7-3.08-.55-.52-1.39-1.31-1.49-1.64-.29-1.01-1.03-1.66-1.88-2.43-.32-.29-.87-.78-1.14-1.11,0-.6-.21-1.18-.6-1.65-.49-.59-1.22-.93-1.99-.93-.07,0-.14,0-.21,0-.03-.02-.24-.12-.4-.22-.1-.45-.32-.87-.64-1.21-.18-.19-.38-.34-.6-.47-.98-2.86-3.59-5.19-6.26-6.22-.06-.08-.12-.17-.18-.26-1.15-1.65-2-2.76-3.29-3.13q-1.37-.4-2.02-1.28c-.25-.34-.55-.74-.93-1.22-.73-.9-1.45-1.77-2.17-2.62-.7-.84-1.4-1.67-2.07-2.5-.34-.41-.79-.71-1.3-.85l-1.56-.45c-.23-.07-.47-.1-.71-.1-.48,0-.95.13-1.37.39-.62.39-1.05,1.02-1.18,1.74-.22,1.23.21,2.1.44,2.51.04.63-.08,1.19-.22,1.82-.11.51-.21.99-.25,1.46-.48,5.24-.99,17.91.52,23.65.09.36.06.7-.02,1.38-.08.73-.19,1.63-.05,2.75.72,5.78.14,12.52-1.73,20.02-.09.36-.11.7-.1.99-.11.18-.21.39-.29.63-.03.09-.05.19-.08.28-.12.02-.22.05-.31.08-.26.09-.47.2-.64.31-.03,0-.06,0-.08,0-.53,0-1.05.16-1.49.47-.33.23-.59.53-.77.87h-1.31c-.22,0-.43.03-.64.08-1.01-.96-1.68-1.58-2.27-1.94-.07-.33-.15-.63-.23-.92l-.15-.58c-.24-1.01-1.06-1.77-2.05-1.95-.34-2.65-.39-5.27-.13-7.67.17-1.62-.08-2.71-.3-3.58.47-.47.76-1.11.76-1.83,0-.54-.17-1.11-.46-1.59-.08-.66-.34-1.2-.79-1.62-.16-.15-.34-.28-.55-.39,0-.06.01-.13.01-.19,0-.25-.04-.48-.09-.68.33-.44.54-.99.54-1.55v-.45c0-.58-.2-1.14-.55-1.6-.08-.28-.18-.62-.34-.96v-.02c.16-.23.28-.48.35-.75.08-.29.11-.57.11-.83.21-.31.35-.67.4-1.07.1-.73.07-1.74-.44-2.86.2-.8.13-1.81-.54-3.03.3-.61.55-1.3.55-1.83,0-.15-.01-.32-.05-.49.07-.09.13-.19.18-.29.39-.73.41-1.6.06-2.33.02-.13.15-.71.19-.9.58-.47.95-1.19.95-2,.02-4.97.16-9.97.44-15.72.06-1.15.16-2.38.25-3.65.28-3.48.56-7.08.17-10.18-.05-.37-.04-.83-.02-1.33.22-.14.42-.32.59-.53l.99-1.24c.19-.01.38-.02.57-.03.28-.02.57-.04.85-.04.16,0,.25,0,.32.02.45.32.98.48,1.5.48.48,0,.96-.13,1.39-.4.07-.04.13-.08.19-.13.14.04.28.06.43.08.08,0,.16.01.23.01.34,0,.66-.07.97-.19.04.03.08.06.13.09.47.37,1.03.54,1.58.54.3,0,.6-.05.89-.16.33.26.72.63.95.85l.44.42c.48.44,1.11.67,1.74.67.27,0,.55-.04.82-.13l.23-.08c3.68,2.19,6.79,4.78,9.99,8.29.31.34.71.59,1.15.73.04.08.08.16.13.23.43.69,1.15,1.14,1.94,1.21.26.39.54.65.72.82.5.68.87,1.15,1.2,1.57.63.8.9,1.13,1.21,2.22.25.87,2.14,3.55,4.23,4.89.16.56.41,1.27.81,2.15.28.63.68,1.12.96,1.48.06.07.12.14.17.21.06.55.3,1.07.68,1.47.42.45.98.73,1.59.8.29.67.66,1.25.98,1.74l.24.39c.98,1.58,2.21,2.55,3.12,3.25.35.27.82.64.93.8,3,4.7,4.66,7.1,9.44,10.34.09.07.17.14.24.21.2.18.47.43.85.66.2.49.54.91,1,1.2,0,0,0,0-.01,0-.04,0,.09.15.21.3.58.67,1.13,1.31,2.06,1.56.07.02.15.04.22.06.11.35.29.68.54.96.45.51,1.08.81,1.76.86.47.55,1.18.9,1.96.9h1.05c.11.19.24.37.38.54.03.03.06.07.09.1.24.92,1.17,2.28,4.87,4.1.05.35.17.68.37.99,1.02,1.59,2.58,1.78,3.25,1.86.09.01.18.02.27.04.44.33.93.48,1.43.48s1-.16,1.46-.46c.91-.61,1.23-1.79.95-2.85l-.2-.77c-.43-1.61-.77-2.89-.62-4.33.04-.41-.01-.82-.16-1.19-1.28-3.35-1.31-7.75-1.34-12.02-.02-2.46-.04-5.01-.29-7.41-.26-2.47-.41-5.08-.56-7.61-.25-4.22-.5-8.57-1.26-12.67l-.45-2.24c-.05-.29-.15-.55-.26-.77.48-.36,1.25-.97,1.55-2.08.18-.64.14-1.25.1-1.72.25-.36.52-.82.67-1.36.13-.04.28-.07.43-.11.66-.18,1.48-.4,2.23-.8.15-.08.29-.17.42-.27.26.09.54.13.81.13.33,0,.66-.06.97-.19.79-.32,1.38-1.01,1.56-1.84.05-.21.16-.63.17-.65.32.04.58.04.75.04.24,0,1.11-.04,1.11-.04.12,0,.24-.02.36-.03.15.02.3.04.45.04.08,0,.39-.01.46-.01.25,0,.8.03.91.04.32.28.72.53,1.23.64.71,2.97,1.36,10.05,1.06,12.25-.45.53-.67,1.23-.6,1.92l.41,4c-.31.33-.54.74-.64,1.21-.32,1.49.26,2.52.81,3.17-.05,2.31,0,4.62.04,6.86.06,2.8.11,5.69-.01,8.48-.03.6-.12,1.26-.21,1.96-.3,2.22-.65,4.9.4,7.29-.37,1.44-.24,2.99-.13,4.39.05.57.1,1.23.09,1.73-.39.36-.77.81-.95,1.46-.53,1.91-.03,3.33.29,4.27.26.76.32.97.17,1.47-.21.68-.38,1.89.42,3.1.01.55-.04,1.24-.09,1.88-.1,1.31-.21,2.67.06,3.91.06.27.55,1.44,1.35,2.37-.13.17-.23.35-.32.55-.2.03-.39.08-.59.16l-1.12.45c-.33.14-.64.34-.89.6-1.15,1.19-.86,2.57-.37,3.61-.18.3-.3.64-.34.99-.08.06-.16.12-.23.18-.32-.13-.65-.19-.99-.19-.41,0-.83.1-1.21.3-.02,0-.03.02-.05.03-.83-.77-1.7-1.33-2.78-1.33-.72,0-1.62.39-2.11.92-.27.3-.47.65-.58,1.02"/>
  </g>
  <path d="M617.05,121.82c.36,0,.7.01,1,.06.68.12,1.62.18,2.89.18,2.49,0,5.89-.24,7.27-.52,1.01-.2,1.9-.3,2.74-.3s1.61.09,2.42.28c.32.08.64.11.95.11.7,0,1.25-.18,1.64-.37.08.01.17.01.26.01.1,0,.4-.02.49-.03,1.42-.17,2.43-1.45,2.27-2.86.04-.37.08-.85-.04-1.39,0-.04-.08-.31-.2-.64-.06-.17-.14-.38-.18-.54-.24-.85-.84-1.36-1.28-1.72l-.02-.02c-.1-.3-.27-.88-.32-1.09-.11-1.79-.91-2.67-1.74-3.1-.13-.19-.28-.4-.47-.59-.23-.63-.5-1.19-.75-1.69-.28-.57-.54-1.11-.7-1.64-.15-.52-.41-.9-.6-1.17,0,0,0-.01-.01-.02.16-.72,0-1.48-.43-2.08-.36-.49-.88-.84-1.46-.98-.02-.03-.12-.14-.15-.17l-.22-1.6c-.12-.93-.73-1.69-1.55-2.04-.05-.26-.1-.52-.16-.77-.18-.65-.57-1.28-1.32-2.39.24-.85.03-1.78-.57-2.43.06-.71-.17-1.44-.67-1.98-.45-.49-1.06-.78-1.7-.83-.24-.77-.55-1.58-.98-2.25-.3-.48-.68-.8-.93-1.01-.48-.63-1.23-1-2.03-1.02h-.04c-.78,0-1.53.36-2.02.97-.11.14-.27.26-.42.39-.35.31-.78.69-1.14,1.19-.39.53-.67,1.22-.94,2-.39.23-.79.57-1.11,1.09-.04.06-.07.12-.11.19-.13.11-.25.22-.36.35-.4.48-.61,1.08-.6,1.69-.05.05-.1.11-.16.17-.18.2-.4.44-.61.73-.29.13-.55.31-.78.54-.48.49-.75,1.15-.75,1.84,0-.01,0-.02-.02-.02-.08,0-.34.31-.52.52-.39.46-.87,1.02-1.22,1.71-1.76,1.01-2.67,3.2-3.27,4.65-.08.2-.16.38-.23.55-.35.21-.83.57-1.23,1.2-.75,1.18-1.12,2.39-1.45,3.45-.12.37-.23.75-.36,1.12,0,0,0,0,0,.01-.64.09-1.22.43-1.63.94-.43.54-.62,1.22-.55,1.9l-.02.03c-.12.2-.25.41-.37.64-.77,1.49-.98,2.27-1.25,3.42-.03.12-.06.25-.09.39-1.27,1.36-.96,2.75-.76,3.33.37,1.03,1.34,1.71,2.43,1.71h10.16c.47.07,1,.09,1.55.09.74,0,1.55-.05,2.37-.11.7-.05,1.4-.09,2.05-.09M566.04,169.49c-.26-.38-.64-.81-1.17-1.12-.49-.65-1.25-1.04-2.07-1.04h-.45c-.03-.13-.07-.25-.12-.37.13-.3.19-.63.19-.98v-.99c0-.6-.21-1.18-.59-1.65-.02-.03-.04-.05-.07-.08v-.34c.54-.6.96-1.52,1.14-2.89,1.92-1.37,1.55-3.13,1.37-3.71.1-.24.16-.49.22-.71.27-.1.51-.26.75-.46.56-.47.78-1.17.8-1.9.43-.48.66-1.1.66-1.75-.01-.94.61-1.75,1.61-2.98.44-.54.87-1.08,1.24-1.63.54-.82,1-1.69,1.47-2.58.76-1.46,1.42-2.73,2.46-3.58.19-.16,4.76-3.92,5.33-6.55.06-.28.09-.55.09-.81l6.21-12.91c.65-.99,1.5-2.01,2.4-3.1.7-.85,1.41-1.7,2.03-2.55.42-.57.82-1.18,1.2-1.78.27-.42.53-.83.79-1.2.19-.25.43-.51.68-.77.4-.43.85-.92,1.23-1.49.41-.18.77-.47,1.04-.85.26-.36.42-.77.47-1.2.23-.4.35-.87.35-1.34.33-.19.61-.44.83-.75.37-.52.54-1.16.47-1.79.04-.13.08-.26.11-.38.72-.62,1.04-1.59.83-2.53.43-.78.81-1.6,1.07-2.47.17-.13.33-.28.48-.46.08-.1.16-.2.23-.3,1.12-.38,1.64-1.32,2.06-2.09.07-.13.17-.32.27-.49.57-.16,1.07-.52,1.42-1.02.4-.59.54-1.3.4-1.97.11-.25.22-.51.33-.77.59-1.42.99-2.31,1.76-2.85.02-.01,2.57-2.03,2.57-3.91,0-.07,0-.14-.01-.21.09-.05.18-.11.27-.17.67-.49,1.07-1.28,1.06-2.12.01-.03.1-.24.16-.39.11-.27.26-.61.37-1.01.06-.06.13-.13.19-.2.3-.36.49-.79.56-1.24.42-.27.99-.67,1.47-1.29.32-.42.51-.92.54-1.43l.36-.21c.96-.56,1.43-1.63,1.25-2.67.12-.05.24-.12.36-.2.84-.56,1.27-1.25,1.48-1.9.14-.13.27-.28.39-.45.24-.36.39-.77.43-1.2.9-.12,1.54-.51,1.99-.94.14-.02.28-.04.41-.07.42.23.9.35,1.4.35.46,0,.88-.1,1.26-.27.21.35.49.65.84.87.42.27.91.41,1.39.41.33,0,.67-.06.98-.19.27.11.56.17.85.19,0,0,0,0,.01,0,.31.78.81,1.4,1.17,1.8.02.16.06.33.12.51.02.06.04.11.06.17-.16.52-.28,1.16-.16,1.91.16.97.84,1.74,1.74,2.04.46.77.89,1.64,1.34,2.54.58,1.16,1.17,2.36,1.91,3.48.16.24.54.68.96,1.14.16.17.34.36.48.52.66,2.26,1.34,4.01,2.77,6.45l.22.4c.3.56.72,1.37,1.4,2.05.11,1.2,1.4,3.57,1.41,3.59.29.43.77,1.01,1.3,1.65.45.54,1.25,1.48,1.55,1.99-.04.48-.06.98.09,1.53.16.59.46.96.98,1.56.29.34,1.17,1.39,1.34,1.79.32,1.17.9,2.27,1.41,3.23.23.44.47.88.68,1.34.41.9.97,1.72,1.51,2.52.76,1.11,1.54,2.27,1.54,3.15,0,.77.35,1.47.89,1.94.36,1.06,1,1.9,1.5,2.54l.27.34c.29.39.68.69,1.13.86l5.22,12.21c.22.84.94,3.3,2.17,4.68v.4c0,.74.31,1.41.82,1.88.27.64.75,1.25,1.41,1.85.27.89.49,1.38,1.12,2.04.1.1.24.25.46.54.33.43.6,1.15.89,1.9.26.68.53,1.36.85,1.99.17.32.4.68.65,1.04.12.17.29.42.38.57,0,1.13.74,2.12,1.8,2.46.06.21.11.49.15.68l.08.36c.16.74.62,1.35,1.25,1.7.53,1.14,1.22,2.06,1.57,2.49.57.7,1.21,1.31,1.84,1.89-.09.3-.13.62-.11.94.01.19.05.38.1.55-.19.62-.13,1.28.15,1.86-.49.14-.94.42-1.28.82-.42.49-.64,1.12-.62,1.76t0,0c-.66.37-1.11,1-1.26,1.7-.05.02-.1.03-.15.05l-.3-.07c-.21-.06-.42-.08-.63-.08-.46,0-.92.13-1.33.37-.28.17-.53.39-.73.65-.45.07-.88.26-1.23.56-.46-.38-1.04-.59-1.65-.59h-.65l-.09-.51c-.1-.54-.36-1.02-.74-1.39-.03-.27-.09-.54-.2-.84-.04-.23-.03-.34-.03-.45.03-.69.08-1.97-.92-3.02-.06-.06-.12-.13-.19-.19-.13-.46-.29-.85-.42-1.14-.07-.16-.16-.38-.18-.46.19-.8-.01-1.64-.54-2.27-.12-.14-.25-.27-.4-.38-.08-.49-.3-.95-.64-1.33-.22-.25-.49-.44-.77-.58-.7-1.67-1.33-3.51-1.93-5.3l-.38-1.1c-.22-.64-.68-1.16-1.25-1.46-.2-.41-.41-.8-.61-1.19-.18-.35-.38-.71-.55-1.08l-.35-.68c-.2-.38-.58-1.13-.73-1.54.08-.74-.17-1.48-.69-2.04-.33-.36-.69-.71-1.05-1.05-.49-.47-.97-.93-1.29-1.36-.1-.55-.28-1.02-.43-1.39-.06-.15-.13-.3-.16-.45-.14-.75-.62-1.46-1.25-1.89-.43-1-.97-1.9-1.41-2.62-.16-.27-.39-.55-.64-.84,0,0,0,0,0,0-.07-.52-.3-1-.67-1.39-.49-.53-1.17-.82-1.88-.82-.09,0-.17,0-.26.01,0,0-.68-.04-.87-.04-.26,0-.52.02-.76.06-.88.14-1.84.21-3.13.21-.59,0-1.19-.01-1.77-.03-.62-.01-1.23-.03-1.83-.03-1.19,0-2.15.05-3.03.16-.09.01-.18.02-.28.02-.53,0-1.09-.09-1.65-.18-.77-.12-1.64-.25-2.54-.25-1.06,0-2,.18-2.83.56-1.78-.38-3.82-.59-5.75-.59-.81,0-1.6.04-2.35.12-1.07.11-2.28.16-3.49.21-.79.03-1.57.06-2.32.11-.22.01-.43.02-.65.02-.89,0-1.78-.09-2.62-.18-.71-.07-1.4-.14-2.05-.17-.99-.04-1.98-.06-2.97-.06-1.19,0-2.38.02-3.58.04-1.16.02-2.32.04-3.48.04-.72,0-1.44,0-2.16-.03h-.08c-.76,0-1.49.34-1.98.93-.41.37-.68.63-.9.91-.2.26-.34.58-.43.92-.3.4-.6.79-.91,1.19-1.19,1.53-2.42,3.11-3.1,4.88-.49.28-1.13.68-1.58,1.38-.28.44-.54.98-.81,1.54-.15.32-.37.8-.57,1.12-.45.11-.88.34-1.2.65-.2.2-.34.4-.45.59-.26.14-.5.33-.7.57-.49.57-.7,1.31-.61,2.03-.05.04-.09.07-.13.11-.49.42-1.16,1-1.44,1.96-.23.8-.38,1.5-.52,2.25l-.18.87c-.04.07-.31.48-.49.75-.72,1.09-1.87,2.84-1.6,5-.51,1.47-2.45,5.87-2.87,6.61-.17.25-.55.66-.84.97-.34.37-.59.65-.77.95-.03,0-.06-.01-.08-.02-.17-.03-.34-.05-.51-.05-.59,0-1.16.2-1.62.57-1.01.82-1.67,1.72-2.23,2.54-.13.05-.27.11-.39.18l-.9.52Z"/>
  <path d="M527.59,37.23s.02,0,.02-.01l.1.02s-.08,0-.12,0M480.75,106.7l-1.12-.58c-.32-.17-.67-.26-1.03-.28-.04-.03-.09-.07-.13-.11-.6-.49-1.5-1.22-2.79-1.22-.3,0-.8.09-1.08.18-.3,0-.79-.15-1.27-.28-.76-.22-1.71-.49-2.75-.49h-.06c-.69-.6-1.41-.95-1.96-1.21-.23-.11-.46-.22-.68-.36-1.13-.7-1.8-.93-2.46-1.15-.25-.09-.54-.18-.91-.33-.25-.11-.52-.23-.78-.36-.25-.13-.51-.21-.78-.25-.52-.26-1.14-.52-1.88-.84-.47-.2-.95-.4-1.33-.57-.12-.15-.27-.29-.43-.42-.6-1.67-2.39-2.02-3.54-2.22-.31-.79-1-1.4-1.88-1.58-.35-.67-.97-1.24-1.65-1.65-.19-.49-.53-.92-.99-1.22-.32-.21-.66-.34-1.03-.39-.36-.44-.85-1.02-1.64-1.32-.06-.72-.41-1.39-.99-1.84l-1.17-.91c-.12-.39-.33-.76-.62-1.06-.19-.19-.41-.35-.64-.48-.03-.08-.06-.16-.1-.24.03-.68-.2-1.36-.68-1.88-.27-.29-.6-.51-.96-.66-.34-.3-.9-.89-1.23-1.27v-.02c-.3-1.04-.65-2.22-1.29-3.33-.18-.32-.52-.79-.89-1.28-.25-.33-.51-.67-.67-.93-.04-.17-.05-.26-.06-.33-.09-1.01-.43-1.55-1.12-2.59-.16-.35-.69-2.23-.76-2.72,0-.11.02-.28.03-.46.04-.59.09-1.26-.1-1.95-.16-.61-.5-.99-.8-1.33-.04-.04-.08-.09-.13-.14-.02-.13-.15-.99-.2-1.27-.1-.49-.12-.96-.15-1.43-.03-.44-.06-.89-.12-1.35-.04-.3-.15-.61-.31-.9.02-.71.17-1.34.38-2.18l.17-.71c.03-.1.07-.22.12-.35.19-.55.54-1.53.46-2.58.45-.99.61-1.94.75-2.75.05-.27.09-.55.15-.83.05-.1.22-.36.39-.66.43-.75,1.03-1.78,1.24-2.89.02-.02.04-.04.06-.06.51-.53.77-1.25.72-1.97.26-.26.51-.53.75-.89.51-.76.93-1.8,1.22-2.78.16-.13.32-.28.44-.46.33-.43.51-.95.53-1.48.27-.25.52-.52.74-.86.31-.47.65-1.16.9-1.88.26-.2.47-.44.64-.72.65-.39,1.12-1.07,1.23-1.86.12-.13.34-.33.49-.48.35-.33.7-.66,1-1.02l.63-.74c.54-.63,1.11-1.27,1.65-2.06.47-.22,1.1-.61,1.62-1.39.08-.05.16-.1.24-.15.62-.38,1.53-.94,1.9-2.06.89-.3,1.47-.95,2.04-1.6.15-.17.38-.43.57-.62.4,0,.8-.11,1.16-.3.04,0,.08,0,.12,0,.19,0,.39-.02.59-.07.82-.19,1.48-.76,1.8-1.52.42-.13.8-.36,1.11-.69.03-.03.05-.06.08-.09.21-.11.4-.25.57-.42.14-.13.26-.28.36-.44.09,0,.28-.01.32-.01.58-.03,1.14-.25,1.59-.6.41-.04.8-.17,1.15-.39.47-.3.79-.65,1.02-1,.36-.12.7-.33.96-.61.24-.21.44-.41.61-.62.4-.19.73-.41.99-.61.21.02.4.03.59.03.32,0,.61-.03.89-.09.59-.13,1.18-.44,2.26-1.03.41-.23.82-.46,1.06-.56,1.66-.65,3.41-1.03,5.26-1.43l.98-.22c.6-.13,1.12-.47,1.48-.93,3.83-.84,7.94-1.3,12.27-1.36.41,0,.81-.11,1.16-.3h1.74c.43,0,.83-.1,1.19-.29h5.76l.83.37c.26.12.54.19.82.21,0,0,0,0,0,0,.48.34,1.29.91,2.4.91.25,0,.68-.06.92-.14.14.01.52.11.87.19.6.15,1.35.34,2.18.35.55.39,1.1.62,1.53.8.17.07.34.14.5.22.93.5,1.48.66,2.01.82.2.06.41.12.7.22.69.25,1.36.59,2.02.92,1.02.51,2.15,1.08,3.39,1.41l3.59,2.39c.43.28.93.43,1.43.43.25,0,.5-.04.74-.11.73-.22,1.33-.76,1.64-1.46l.35-.82c.64-.35,1.11-.96,1.27-1.72.04-.19.34-.55,1.04-.98.44-.27.84-.52.96-.54.14.02.29.03.43.03.26,0,.51-.03.76-.11.11.03.23.06.34.08,0,.99-.04,2.26-.09,2.97-.01.17-.08.79-.14,1.31-.27.29-.52.67-.66,1.18-.18.64-.22,1.35-.25,1.98,0,.15-.01.3-.02.44-.18.32-.41.76-.57,1.29-.59,1.85-1.57,3.62-2.7,5.68l-.34.62c-.14.26-.31.51-.47.75-.33.5-.68,1.04-.96,1.7-.48.41-.95.9-1.15,1.65-.19.66-.14,1.33-.1,1.88-.05.09-.09.17-.12.26-.47.12-.91.38-1.25.75-.01.02-.03.03-.04.05-.16,0-.32.04-.48.08-.21-.06-.44-.09-.66-.09-.17,0-.34.02-.52.05-.17-.04-.34-.05-.51-.05-.15,0-.29.01-.44.04-.02,0-.05,0-.08.01-.05,0-.11-.02-.17-.03-.19-.22-.41-.41-.67-.55-.09-.05-.18-.1-.27-.14l.07-.54c.05-.39,0-.77-.11-1.13.01-.04.03-.08.04-.13.12-.45.13-.89.11-1.25.43-.48.87-1.02,1.01-1.24,0-.01,1.03-1.54,1.42-2.52.09-.22.14-.44.17-.63.2-.37.31-.79.31-1.22v-.29c0-.8-.37-1.56-1.01-2.05-.16-.22-.46-.57-.91-.86-.6-.39-1.22-.63-1.72-.82-.19-.08-.46-.18-.62-.26-.29-.56-.78-1-1.38-1.23-1.01-.38-1.98-.43-2.79-.43h-.8c-.21,0-.41,0-.62-.02-.48-.04-1.55-.22-2.29-.38-.47-.38-1.26-.85-2.45-.85-.28,0-.6.02-.96.09-.7.13-1.53.19-2.52.19-1.52,0-3.21-.15-4.84-.29-.99-.09-1.96-.17-2.9-.23-.34-.02-.68-.03-1.02-.03-.38,0-1.8.03-2.14.03,0,0-.63-.01-.67-.01-.66,0-1.31.25-1.79.72-.02.02-.05.05-.07.07-.4.02-.82.03-1.27.03-.62.01-1.25.03-1.91.07-.34.02-.7.14-1.03.32-.33,0-.68.01-1.05.02-2.23.02-4.54.05-6.15.76-.25.11-.57.28-.9.47-.12.06-.24.14-.35.2-.03,0-.07,0-.11-.01-.26-.02-.52-.04-.76-.04-.39,0-.74.05-1.06.14-.47.12-.77.34-1.45.8-.21.14-.56.38-.89.6-.12-.02-.23-.02-.35-.02-.76,0-1.51.33-2.01.96-.05.06-.1.13-.14.2h-.07c-.25,0-.49.02-.71.05-.34.06-.69.21-1.01.43-.43.07-.83.11-1.18.13-.98.05-1.81.63-2.21,1.46-.67,0-1.33.27-1.81.73-.12.12-.24.25-.33.39-.52.22-.95.57-1.37.9-.03.03-.06.05-.09.08-.13-.02-.27-.03-.4-.03-.49,0-.98.14-1.42.43-.81.53-1.23,1.23-1.52,1.7,0,0,0,0-.02,0-.46.11-1.04.25-1.61.59-.83.5-1.47,1.23-2.04,1.87-.31.35-.83.94-1.06,1.06-.79.08-1.4.5-1.76,1.1-.42.34-.73.8-.87,1.34-.09.08-.2.16-.3.23-.53.42-1.25.98-1.65,1.93-.22.47-1.38,1.78-1.81,2.28-.75.85-1.06,1.21-1.25,1.87-.02.08-.04.16-.06.24-.03.01-.06.03-.09.05-.73.37-1.24,1.07-1.38,1.88-.06.4-.05.76,0,1.07-.7.99-.72,1.97-.53,2.75-.85,2.4-1.36,5.3-1.56,7.38-.16,1.72.21,3.16.51,4.31.32,1.26.48,1.95.21,2.72-.37,1.04-.03,2.21.85,2.89.19.15.35,1.03.44,1.5l.06.31c-.03.42-.03.72,0,1.01.07.65.39,1.23.87,1.65.19.38.55.94,1.29,2.08l.28.44c.24.37.51.65.78.86v.25c0,.92.49,1.77,1.28,2.23l.49.28v.13c0,.12.01.25.03.37-.11.79.14,1.61.73,2.2l.74.73c.49.49,1.14.76,1.83.76.04,0,.08,0,.11,0,.2.1.41.18.63.23.02,0,.04.01.06.01.02,0,.03,0,.04-.02.12.7.54,1.33,1.14,1.72.32.21.68.33,1.05.39.04.05.26.32.33.4l-.13.53c-.19.77-.02,1.59.47,2.22.38.48.92.81,1.5.94.03.02.05.05.08.06.37.3.81.49,1.28.55.17.19.36.38.55.55.32.28.71.48,1.12.58l2.5.59c.2.05.4.07.59.07.36,0,.7-.07,1.03-.21,0,.01.02.03.02.04.82,1.29,2.57,2,4,2.09.74.59,1.5.81,2.42.92.13.02.28.03.46.06.76.14,1.5.32,2.25.51.56.14,1.13.27,1.69.4.3.35.69.62,1.15.77,1.85.61,3.58.63,5.25.65.65,0,1.31.01,2,.06.17.01.97.09,1.6.16.28.26.66.51,1.16.64.28.08.6.12.95.12.19,0,.4-.02.62-.03.13.02.26.03.39.03.14,0,.28-.01.43-.04.06,0,1.66,0,1.66,0,.1,0,.2,0,.3-.02.09.01.19.02.3.02h2.06c.79,0,1.49-.35,1.97-.91.07,0,.15,0,.22,0,.43,0,.88.03,1.32.05.54.03,1.08.06,1.61.06s1.07-.03,1.58-.11c.61-.09,1.15-.3,1.63-.47.16-.06.36-.14.52-.19.24.07.48.1.72.1.66,0,1.31-.25,1.8-.73.72-.7,1.92-1.09,3.19-1.5.85-.27,1.72-.55,2.58-.96.84-.36,1.44-.84,1.8-1.44,1-.54,1.8-1.41,2.46-2.11.09-.1.18-.2.27-.28.32-.1.63-.22.95-.33.38-.14.77-.28,1.19-.4.99-.28,1.93-.44,2.8-.48.01.44.06.99.28,1.59-.08.51-.08,1.04-.06,1.54-.31.38-.51.85-.56,1.38-.18,1.85-.96,3.92-1.91,5.05-.09.09-.23.22-.38.41-.31.19-.66.41-1,.62-.56.35-1.11.71-1.42.86-2.15.97-4.39,1.53-6.75,2.13l-1.23.32c-.73.19-1.32.68-1.65,1.31-4.94,1.28-10.25,1.97-15.83,2.06-.5,0-.98.16-1.39.43h-2.3c-.52,0-1.01.16-1.43.43h-7.45Z"/>
</svg>