<?xml version="1.0" encoding="UTF-8"?>
<svg id="Logos" xmlns="http://www.w3.org/2000/svg" viewBox="0 0 1750 400">
  <path d="M1370.12,133.73c.57.35.89.82,1.13,1.34,1.27.35,3.51.85,3.97.88.2-.02.42-.03.63-.03.97,0,1.93.18,2.85.36.82.16,1.59.3,2.24.3h.29c.26-.03.53-.04.79-.04.77,0,1.55.09,2.36.18.65.08,1.31.16,2.01.16l.6-.02c.2,0,.4-.03.75-.11.03-.01.68-.21.68-.21.85-.27,1.91-.62,3.27-.62.57,0,1.15.06,1.72.19.27-.02.61-.1.98-.17.6-.11,1.26-.24,1.93-.3.46-.42,1.07-.67,1.74-.67h2.66s.08-.08.12-.11c.47-.41,1.07-.63,1.69-.63.12,0,.25.01.37.03.13.02.25.03.36.03.31,0,.57-.08,1.27-.31.8-.25,1.6-.42,2.39-.57,1.18-.24,2.11-.42,2.9-.96.44-.3.95-.45,1.46-.45.27,0,.54.04.8.13.88-.18,2.92-1.43,3.8-1.98,2.32-1.42,4.37-3.26,6.63-5.96.4-.48,1.04-1.09,1.64-1.64.35-.32.67-.6.77-.7.4-.63.76-1.24,1.11-1.84.59-1.02,1.18-2.02,1.94-3.1.73-1.02,1.07-1.75,1.5-2.68.27-.58.55-1.18.94-1.89,1.14-2.12,1.7-3.74,2.39-6.17.18-.63.36-1.22.55-1.81.19-.62.38-1.23.57-1.91.17-.61.52-1.03.86-1.36.11-.63.29-1.5.79-2.37,0-.03-.09-.36-.12-.5-.28-.24-.51-.55-.67-.9-.23-.52-.27-1.08-.16-1.6-.04-.18-.06-.37-.06-.56v-1.86c0-.52.16-1.03.44-1.45-.08-.33-.09-.67-.03-1.02.06-.38.21-.73.41-1.03-.11-.54-.17-1.2-.03-1.97.06-.34.18-.65.36-.94-.4-.27-.72-.65-.92-1.09-.29-.64-.59-1.86.26-3.3.05-.3.1-.61.15-.92.36-2.17.7-4.22.21-6.01-.22-.78-.1-1.26.52-3.88.22-.94.46-1.89.51-2.24.03-.35-.01-.81-.04-1.26-.06-1.04-.12-2.02.13-2.92.18-.63.43-.92,1.36-1.98.34-.39.71-.8.84-.98.58-.87,1.25-1.88,1.74-2.65-.13-.13-.25-.27-.35-.42-.32-.49-.74-1.53-.09-2.92.33-.7.89-1.2,1.54-1.78.13-.11.25-.22.35-.31.2-.47.62-1.31,1.64-1.87.38-.21.81-.31,1.23-.31.32,0,.65.06.95.18.31-.35.68-.7,1.14-.99-.09-.71.12-1.44.59-1.99.33-.4.78-.68,1.27-.82.26-.61.74-1.12,1.39-1.39.28-.12.57-.18.85-.2.11-.11.23-.21.36-.3.03-.02.06-.04.09-.06.15-.54.48-1.02.94-1.36.39-.29.84-.46,1.31-.51.2-.12.41-.22.64-.28.06-.68.4-1.31.93-1.74.47-.38,1.05-.59,1.64-.59.21,0,.41.02.62.08l.66.16c1.52-1,2.51-1.23,3.93-1.51l.44-.09c.16-.09.35-.22.54-.34.39-.25.78-.49.99-.6.21-.11.44-.25.7-.41.93-.57,1.97-1.2,3.07-1.41.13-.39.34-.74.63-1.04.49-.51,1.19-.78,1.89-.78.1,0,.2,0,.29.02.15,0,.3-.01.45-.02.26-.02.52-.03.78-.03.06,0,.12,0,.18,0,.02-.02.05-.04.06-.06.47-.42,1.09-.65,1.72-.65h.45c.22-.47.58-.87,1.04-1.14.4-.23.85-.35,1.3-.35.41,0,.83.1,1.2.3.26-.13.42-.18.54-.21.41-.11,1.25-.23,2.13-.33.23-.03.52-.06.8-.1.25-.34.58-.69,1.04-.96-.12-.17-.22-.36-.3-.55-.09-.24-.15-.48-.17-.73-.05-.04-.11-.08-.16-.11-.84-.56-1.76-.88-2.83-1.26-.66-.23-1.32-.47-1.98-.76-.44-.19-1.12-.6-1.81-1.02-.4-.25-.8-.51-1.1-.66-.15,0-.32.02-.48.04-.35.03-.7.06-1.02.06-.45,0-.84-.05-1.2-.15-.57-.15-.98-.46-1.3-.78-.09,0-.21,0-.33,0-1.68,0-3.92.27-4.49.43-.26.07-.52.16-.79.25-.59.21-1.29.45-2.11.57-.84.94-2.04,1.4-2.76,1.68-.68.27-1.35.44-2.04.61-.78.19-1.45.36-2.13.73-.58.32-1.15.68-1.72,1.04-1.17.74-2.39,1.52-3.79,2.07-.7.28-1.22.38-1.77.43-.05.05-.1.1-.16.16-.98.96-2.42,2.36-4.24,2.66-.99.94-2.38,1.62-3.48,2.05-.12.23-.27.45-.47.64l-3.54,3.54c-.09.1-.19.18-.3.26-.04.05-1.77,2.08-1.77,2.08-.2,1.17-1.2,2.08-2.42,2.14-.08.08-.17.17-.26.25-.65,1.14-1.08,2.21-1.53,3.43-.08.21-.17.39-.27.55-.07.37-.22.72-.45,1.03-.25.35-.58.62-.96.81.01.34,0,.74-.13,1.17-.25.85-.79,1.28-1.37,1.74-.17.14-.55.44-.81.68,0,.08.02.17.02.26.05.55.09,1.19,0,1.83-.17,1.18-.84,2.62-1.7,4.39l-.38.79c-.45.96-.65,2.03-.87,3.26-.13.73-.27,1.47-.45,2.19-.07.3-.18.55-.31.77.03.46.04.92,0,1.34-.06.57-.31,1.09-.69,1.49.08,1.49.06,3.99-.14,4.7-.17.59-.49,1.01-.83,1.33-.05.6-.06,1.44-.07,2.05-.02,1.04-.05,2.05-.14,2.78-.08.62-.38,1.15-.81,1.55-.12,1.72-.34,3.41-.55,5.07l-.12.98c-.09.75.12,1.79.34,2.88.28,1.39.6,2.96.4,4.56-.05.38-.17.73-.36,1.04,0,.05,0,.09,0,.13.03.61.05,1.23-.02,1.76-.03.31-.16.63-.33.95.02.33.02.73-.08,1.17-.13.61-.51,1.41-1.83,3.86l-.27.51c-.14.27-.3.61-.47.97-.37.79-.79,1.65-1.14,2.2-.31.49-.7.82-1.05,1.11-.35.46-.83.77-1.35.92-.19.45-.51.85-.94,1.15-.19.13-.4.23-.62.3-.43.49-1.03.8-1.67.87-.13.19-.29.37-.47.52-.47.4-1.07.61-1.67.61h-.07c-.26.17-.59.39-1.02.56-.31.13-.69.24-1.1.36-.27.08-.67.2-.95.32-.35,1.01-1.32,1.74-2.44,1.74h-.66c-.46.66-1.21,1.08-2.03,1.11-1.19.05-2.38.54-3.77,1.12-.87.36-1.75.73-2.66,1-.72.22-1.39.29-1.98.36-.48.06-1.04.12-1.18.24-.47.4-1.08.61-1.7.61-.39,0-.79-.08-1.14-.25-.33-.15-1.41-.44-1.87-.49-.94.17-2.25.19-2.8.19l-.72-.02c-.43-.04-.85-.07-1.49-.1-.06,0-.62,0-.62,0-.67,0-1.33.02-1.95.1-.35.04-.7.06-1.06.06-.47,0-.95-.03-1.43-.06-.35-.03-.69-.05-1.03-.05-.24,0-.42.02-.57.05-.54.11-.92.36-1.71.92-.33.23-.68.47-1.05.71-.46.3-.95.44-1.34.56l-.05.02c-.17.16-1.19,1.18-1.44,1.41.15.69.01,1.43-.42,2.04-.04.05-.07.09-.11.14.68.8,1.1,1.84,1.4,2.6.52.13,1.13.31,1.71.66Z"/>
  <path d="M941.09,26.66c-.02,1.39-.05,2.84.16,4.02.23,1.35.27,2.71.31,4.02.06,1.87.11,3.63.66,5.44.06.19.1.38.13.57.34.36.57.82.65,1.33l.35,2.09c.09.53,0,1.07-.22,1.55.06.13.12.26.16.39.26.87.05,1.81-.56,2.48-.02.03-.17.33-.05,1.49.05.46.28,1.26.49,1.96.21.73.42,1.44.53,2.02l.15.74c.11.51.21,1,.22,1.15.07.58.06,1.2.03,1.66l.25,17.33c0,.1,0,.2-.01.3-.41,4.07-.39,7.92.07,10.83.11.75-.1,1.51-.59,2.08-.02.02-.03.04-.05.06.02.48.02,1.01-.05,1.55l-.09.65c-.05.32-.13.79-.1.92.79,1,.72,2.43-.15,3.37-.04.17.07.75.15,1.13.17.87.38,1.94.17,3.15-.1.56-.14,1.22-.18,1.9-.03.38-.05.76-.08,1.14.23.12.44.28.62.47.63.65.87,1.58.64,2.46.27.4.41.85.43,1.31.34.04.68.16.99.33.98.03,1.88.61,2.29,1.54.03.07.06.14.09.22.29-.4.69-.71,1.17-.9.3-.11.61-.17.92-.17.46,0,.91.12,1.3.35.18-.93.87-1.72,1.82-2,.24-.07.48-.1.72-.1.1,0,.2,0,.29.02.05-.17.11-.34.19-.5.34-.68.94-1.15,1.62-1.35.1-.13.21-.25.33-.35.4-.34.85-.55,1.34-.6.05-.11.11-.22.17-.32-1.3-1.56-.29-3.36.23-4.13.01-.07.02-.13.03-.19-.56-.31-1.18-.75-1.58-1.47-.19-.35-.3-.73-.32-1.12-.05-.88-.02-1.78,0-2.68.02-.84.06-1.68,0-2.5-.2-2.8-.99-5.76-1.74-8.62-.22-.83-.44-1.65-.63-2.43-.05-.16-.14-.41-.24-.68-.3-.83-.47-1.28-.52-1.75,0-.02-.24-2.66.08-3.82.23-.8.75-1.26,1.09-1.54.48-.54,1.18-.86,1.92-.86.02,0,1.13.01,1.67.01.87,0,4.38-.04,5.27-.04.74,0,1.48,0,2.21.03,2.17.06,4.6.21,7.02.36,2.17.14,4.33.27,6.28.33.29,0,.59.01.9.01.98,0,2.01-.04,3.04-.08,1.08-.04,2.15-.08,3.15-.08,1.19,0,2.14.06,2.99.18.46.06.92.09,1.39.09.75,0,1.5-.06,2.24-.11.84-.06,1.66-.12,2.45-.12.69,0,1.36.04,2.1.16.14,0,.26-.03.38-.05.41-.07.81-.13,1.29-.13.23,0,.46.01.69.04.34-.15.77-.28,1.29-.28.26,0,.72.07.97.15.72.22,1.27.81,1.57,1.51.3.69.25,1.54-.08,2.21-.05.09-.08.15-.16.46-.08.31-.26.96-.26,1.14.99,5.39.62,12.61-.91,18.59.03.08.07.16.1.22.33.44.51.98.51,1.54v.35c0,.54-.27,1.17-.61,1.64.05.16.13.38.19.54.12.32.24.65.33.99.01.05.02.09.03.13.11.03.22.08.33.13.99.47,1.57,1.5,1.47,2.59-.03.27,0,.56.02.85.02.38.04.79.03,1.22.02.02.03.04.05.06.21-.06.43-.08.65-.08.43,0,.85.11,1.24.32.43.23.78.52,1.06.85.19-.11.4-.22.64-.31.17-.06.41-.12.64-.15.39-.23.84-.36,1.31-.36.14,0,.28,0,.42.03.1.02.2.03.3.05.11-.19.23-.36.36-.51-.02-.37-.03-.79.04-1.24.15-.92.78-1.68,1.65-2.01.3-.11.6-.16.9-.16.6,0,1.18.21,1.66.6l.46.39c.06-.04.11-.08.16-.12l-.09-.38c-.87-1.17-.62-2.4-.44-2.92.19-.56.56-1.02,1.02-1.33-.2-1.46-.35-3.32-.14-4.73-.33-.38-.78-.97-.96-1.82-.3-1.38-.32-2.72-.33-4.02-.02-1.45-.03-2.83-.49-3.71-.27-.52-.35-1.12-.24-1.69.4-2,.53-4.06.32-5.39-.08-.58-.05-1.11-.03-1.53.01-.17.03-.34,0-.65l-.63-14.68c-.04-.17-.07-.34-.08-.52-.01-.18,0-.43.03-.66v-.16c-.12-.65-.1-1.55.49-2.46-.39-.52-.56-1.18-.49-1.83.05-.46.01-1.13-.03-1.79-.04-.63-.08-1.28-.06-1.93-.27-.29-.47-.65-.59-1.07-.38-1.28.18-2.24.83-2.89-.14-.38-.2-.79-.16-1.19-.02-.16-.02-.32,0-.48.04-.49.13-.96.23-1.44.06-.29.11-.52.13-.71-.24-.41-.38-.86-.38-1.29,0-.15.01-.33.06-.53-.26-.4-.41-.88-.41-1.39v-.35c0-.87.43-1.65,1.1-2.12-.01-.22-.04-.46-.08-.72-.14-.11-.26-.22-.38-.36-.42-.47-.64-1.08-.64-1.7-.03-.28-.06-.83.19-1.49.21-.51.51-.84.83-1.2.05-.06.11-.12.16-.18.09-.52.18-1.18.22-1.64-.18-.32-.31-.66-.34-.98,0-.03,0-.06-.01-.09-.95-.33-1.65-1.19-1.74-2.23-.04-.46-.02-.94,0-1.42.01-.25.04-.5.01-.73-.03-.24-.28-.94-.43-1.36-.26-.72-.5-1.4-.61-2.05-.09-.54-.06-1.04-.04-1.4,0-.11.02-.23.02-.32-.02-.18-.02-.36,0-.53,0-.08-.01-.17-.01-.26v-1.22c0-.86.42-1.62,1.07-2.09.02-.32.03-.63.03-.92-.16-.26-.29-.54-.34-.8-.06-.25-.1-.51-.14-.76-.02-.14-.04-.26-.06-.37-.3-.12-.57-.3-.81-.52-.46-.44-.74-1.04-.79-1.66-.51-.26-.92-.69-1.17-1.22l-1.44-3.12c-.13-.03-.25-.08-.38-.13-.44.35-1,.56-1.6.56h-.05c-.31,0-.61-.06-.88-.17-.11.28-.24.58-.37.9-.39.96-1.13,2.74-1.22,3.25-.08.49-.03,1.31.02,2.11.06.98.12,1.99,0,2.99-.06.45-.23.88-.5,1.23.2.82.28,1.7.14,2.67-.06.39-.11.82-.16,1.27-.14,1.16-.29,2.47-.62,3.63-.06.21-.15.4-.25.57.22.38.35.83.35,1.31v1.05c0,.63-.23,1.22-.61,1.67,0,.87-.07,1.76-.13,2.64-.09,1.35-.2,2.88-.02,3.67.11.52.16.97.19,1.44.03.35.04.58.12.87.8,2.79.85,5.72.91,8.54.03,1.59.05,3.09.22,4.42.3,2.41.04,6.15-.37,8.47-.06.32-.23.68-.44,1-.09.32-.25.62-.44.9-.48.68-1.36,1.08-2.2,1.08-.17,0-.42.06-.71.13-.51.12-1.14.27-1.91.27-.28,0-.57-.02-.88-.06-1.99-.29-4.13-.57-6.25-.57-1.1,0-2.12.07-3.13.22-.5.07-1.17.11-1.94.11-2.32,0-5.49-.31-6.75-.45-.33-.03-.65-.05-.97-.05-.68,0-1.35.05-2.03.11-.81.06-1.62.12-2.44.12-.88,0-1.67-.06-2.63-.21-.59,0-1.57.17-2.51.33-1.33.22-2.83.48-4.27.48-.43,0-.85-.02-1.25-.07-.27-.03-.54-.03-.8-.03,0,0-.5,0-.5,0-.62,0-1.58,0-2.56-.4-.57.22-1.12.38-1.39.42-.31.05-.63.07-.97.07-.3,0-.61-.02-.92-.03-.17-.01-.33-.02-.6-.02-.07,0-.42.02-.5.02-.7,0-1.38-.28-1.87-.8-.55-.58-.81-1.37-.69-2.16.11-.75.03-1.93-.05-3.06-.11-1.58-.22-3.21.07-4.58.02-.07.04-.19.1-.36-.02-.06-.04-.12-.06-.19-.74-2.67.52-11.93.65-12.66.04-.2.1-.43.19-.68-.2-.26-.38-.58-.49-.98-.4-1.43-.06-2.88.16-3.84.05-.21.09-.39.11-.51.24-3.41,0-7.24-.65-10.48-.21-1.06-.28-2.09-.34-3.1-.06-1-.12-1.93-.32-2.67-.27-1.01-.67-1.6-1.32-2.58-.26-.39-.54-.8-.82-1.26-.28-.44-.44-.93-.6-1.41-.04-.11-.07-.23-.11-.33-.18-.21-.47-.51-.77-.82-.25-.26-.46-.49-.66-.7-.03.01-.07.02-.11.03-.21.05-.42.08-.63.08-.36,0-.71-.08-1.04-.22-.6.91-1.42,1.64-2.01,2.16-.09.08-.18.16-.26.23-.01.15-.02.31-.02.48-.04.72-.08,1.53-.29,2.27-.21.75-.69,1.25-1.11,1.62-.18,1.81-.33,6.18-.23,7.01.24,1.36.22,2.89.2,4.38Z"/>
  <path d="M1159.46,161.23c.01.23.02.41.03.56.23.29.46.66.7,1.2.56,1.26.85,2.76,1.14,4.21.17.87.35,1.75.54,2.37l.04.04c.53.49.88.81,1.13,1.37l.46,1.09c.22.52.43,1.02.66,1.52.74.13,1.42.48,2.04,1.06.18.17.33.36.46.56.15.1.27.19.36.26.07.06.16.13.26.19.68.41,1.13,1.12,1.22,1.91.02.17.03.35.01.52.55.18,1.33.45,1.97,1.12.16.17.44.53.72.91.1.14.2.28.28.38,1.11.78,6.34,3.8,7.09,4.11.17.03.38.03.58.04.59.02,1.32.05,2,.29.14.05.3.11.46.19.58.26,1.03.72,1.29,1.27.64.26,1.26.55,1.88.83.93.42,1.82.83,2.7,1.13.26-.13.54-.22.84-.28,1.52-.31,2.94.39,3.88.89.25-.08.5-.15.73-.19.38-.08.73-.1,1.07-.08.53.04.96.22,1.32.44.17-.05.35-.09.5-.13.39-.08.74-.1,1.06-.08.64.04,1.13.28,1.53.56.03,0,.05,0,.08,0,.67-.09,1.5-.19,2.37-.07.05,0,.11.02.19.03.34-.22.73-.37,1.08-.44.38-.08.77-.06,1.12.02.12-.08.24-.16.38-.23.44-.22.88-.38,1.32-.47,1.21-.25,2.16.06,2.8.39.48-.17,1.1-.48,1.49-.66.53-.26,1.06-.58,1.6-.9.96-.58,2.02-1.22,3.25-1.68.28-.51.73-.93,1.3-1.16,2.38-.96,4.59-2.79,6.31-4.39-.01-.14-.01-.29,0-.43.07-.92.62-1.73,1.44-2.13.2-.1.41-.17.62-.21,0,0,.02,0,.02,0,.25-.24.54-.43.87-.55.04-.02.09-.03.13-.04.06-.07.12-.14.19-.21v-.57c0-1.15.75-2.16,1.83-2.48l-.03-.59c-.05-.86.33-1.65.96-2.16l.05-1.17c.03-.67.32-1.29.78-1.73v-.34c0-1.07.66-2.03,1.66-2.42l1.14-.43c.13-.05.27-.09.41-.12.02,0,.05,0,.08-.02,0-.18-.03-.38-.04-.55-.07-.95-.16-2.02.22-3.1.16-.44.4-.81.64-1.13,0-.01,0-.02,0-.03-.21-.68-.44-1.45-.39-2.3.08-1.14.73-1.89,1.08-2.29,0-.01.02-.02.03-.03-.66-1.64-.77-3.41-.87-4.98-.04-.66-.08-1.33-.17-1.96-.07-.48-.24-1.12-.41-1.79-.37-1.42-.71-2.76-.64-3.84.02-.22.06-.42.11-.6-.4-.37-.71-.76-.93-1.24-.4-.92-.78-2.04-1.15-3.15-.26-.79-.52-1.57-.79-2.25-.66-1.68-.83-2-1.93-3.18-1.28-1.37-2.41-2.81-3.51-4.21-1.01-1.28-1.97-2.5-2.99-3.62-1.17.14-2.31-.54-2.73-1.68-.46-1.23-3.52-2.22-5.17-2.76-3.89-1.25-8.39-2.55-12.57-2.01-.82.11-1.61-.18-2.16-.73-1.73.06-3.46.22-5.28.38-1.59.14-3.19.29-4.8.37-.4.02-.77-.04-1.14-.19-.05.01-.11.02-.16.04.08.26.12.55.11.84-.04,1.2-.89,2.21-2.07,2.45l-1.58.32c-.08.4-.25.79-.51,1.11,0,.1-.02.19-.05.29-.19.87-.82,1.58-1.66,1.87-.25.09-.51.16-.79.21-.31.06-.64.11-.97.15-.18.02-.36.04-.54.07-.1.06-.22.15-.35.24-.45.3-.96.65-1.27.83-2.47,1.42-5.85,3.82-7.53,5.65l-.56.64c-.67.77-1.45,1.66-2.44,2.36-.29,1.28-1.06,2.48-1.96,3.36-.13.72-.45,1.32-.71,1.75,0,.65-.25,1.29-.7,1.77-.3.32-.67.55-1.07.68-.02.06-1.99,5.65-1.99,5.65l.04.06c.51.89.45,2-.16,2.83-1.33,1.81-1.06,3.6-.45,6.61.25,1.28.52,2.6.6,4.02ZM1170.13,151.57c.07-.46.17-.87.27-1.27.16-.67.21-.91.14-1.17-.17-.68-.06-1.39.31-1.98.27-.44.66-.78,1.13-.99.29-.27.74-.86,1.02-1.27-.02-.56.11-1.14.4-1.58.14-.22.29-.44.74-.74-.03-.68.21-1.34.67-1.85.38-.41.86-.68,1.39-.79,0,0,0,0,0,0,.1-.09.21-.18.34-.27,0,0,.58-.38.67-.43.03-.46.16-.91.39-1.26.43-.65.96-.89,1.47-1.12.16-.07.36-.16.36-.18.32-.44,1-1.35,2.56-1.67.32-.06.71-.11,1.2-.12.43,0,.84.08,1.23.28.11-.01.22-.03.34-.04.7-.07,1.41-.12,1.94-.09.12,0,.24.02.35.05.02-.01.04-.03.06-.04.27-.17.57-.29.88-.36.49-.1,1.01-.06,1.49.14l1.68.68c.3-.21.65-.38.99-.44.57-.12.93-.04,1.99.17.03,0,.07.01.1.02.15-.17.32-.32.5-.46.29-.21.62-.35.98-.42.43-.09.88-.07,1.3.05.18.05.75.04,1.13.03,1.18-.03,3.34-.07,4.82,1.43,1.56.16,2.8,1.07,3.68,1.73.31.23.62.47.95.65.32.18.53.28.7.35,1.31.59,1.71,1.19,2.37,2.43.12.1.27.21.43.33,1,.76,1.5,1.15,1.84,1.51.39.42.68.87.91,1.25.46-.01.92.1,1.34.33.51.28.9.73,1.12,1.25.55.38,1.74,1.25,1.92,2.94.11.08.23.18.34.28.22.21.41.46.54.73.5.98.59,2.01.27,3.08.06.24.13.51.2.77.2.73.43,1.55.45,2.42.01.4-.07.74-.17,1.01.08.67-.1,1.37-.54,1.93-.05.06-.15.32-.22.51-.22.57-.51,1.34-1.19,2.1-1.23,1.4-2.61,2.49-3.93,3.55-.35.28-.71.57-1.07.86l-.15.2c-.45.62-1.02,1.39-1.94,1.8-.35.16-.76.28-1.23.37-.35.07-.74.13-1.12.18-.1.02-.21.03-.31.04-.28.26-.6.46-.98.59-1.88.64-3.79,1.15-5.85,1.57-2.02.41-4.15.72-6.7.98-.22.05-.44.11-.67.17-.33.09-.65.17-.96.24-.38.08-.75.12-1.1.13-1.4.03-7.37-1.62-8.22-1.92-1.2-.42-2.28-1.12-3.24-1.73-.56-.36-1.13-.72-1.63-.97-.63.07-1.3-.09-1.82-.44-.36-.25-.78-.66-1-1.32-.11-.08-.22-.16-.33-.24-.58-.41-1.17-.84-1.63-1.32-.03-.03-3.29-3.58-3.73-4.58-.24-.54-.33-1.06-.38-1.51-.4-.42-.58-.89-.66-1.28-.08-.39-.09-.88.1-1.42-.13-.48-.27-1.05-.23-1.71.07-.95.59-1.6,1.02-2.12Z"/>
  <path d="M1066.3,89.92c.39.54.67.92.82,1.47.13.48.22,1.16.28,1.84.03.35.05.71.09.87.08.16.41.58.63.86.57.7,1.36,1.69,1.74,2.91.47.38.8.93.91,1.56.34.12.64.31.9.58.57.59.83,1.36.7,2.16.14.4,1.22,1.17,1.75,1.54l.67.49c.93.71,1.49,1.61,1.93,2.33.18.29.45.73.45.75.09,0,.18-.01.27-.01,1.15,0,2.18.77,2.49,1.9.65.17,1.32.44,1.74.86.27.27.64.75.74,1.49.45.38,1.25.87,1.78,1.19.52.32,1.06.65,1.57,1,.09,0,.18-.01.27-.01.65,0,1.3.23,1.81.67.2.18.54.48.84.91l.21.05c.7.17,1.28.63,1.62,1.23.24-.07.5-.11.75-.11.05,0,.1,0,.15,0,.79.05,1.52.46,1.98,1.11.13.19.22.29.22.32.09.02.18.04.29.06.25.05.53.11.83.2.63.17,1,.5,1.43.88.13.11.29.26.44.38.39.07.9.1,1.39.13.57.03,1.13.07,1.65.15,1.24.19,2.69.36,4.09.52l2.25.27c1.76.22,3.22.37,4.65.37,1.94,0,3.46-.3,4.64-.9.35-.18.73-.26,1.12-.26.56,0,1.14.18,1.6.5,0,0,.02,0,.02-.01.95-.54,2.14-1.22,3.54-1.22h.06c.28-.48.71-.87,1.25-1.09.6-.25,1.2-.37,1.82-.37.31,0,.61.03.93.08.02-.02.04-.03.07-.04.13-1.06.91-1.96,2.01-2.2.18-.04.35-.09.53-.14.26-.07.55-.15.86-.22.4-.46.95-.79,1.6-.88.12-.02.48-.04.6-.04.07,0,.14,0,.23,0,1-.95,2.91-2.89,3.4-3.47.36-.58.76-.97,1.12-1.24.68-1.82,1.78-3.34,2.86-4.82.6-.82,1.18-1.62,1.64-2.42-.04-.16-.07-.32-.08-.49-.19-1.73.88-3.13,1.62-4.02-.05-.5-.1-1.15.1-1.85.14-.5.4-.87.68-1.17-.04-.46-.05-1.02.11-1.6.17-.61.5-1.04.85-1.37,0-.02,0-.05,0-.07.05-.68.11-1.52.4-2.35.02-.06.04-.11.07-.17-.14-.38-.22-.79-.22-1.15,0-.39.09-.76.24-1.09-.06-.13-.11-.27-.15-.41-.55-1.99.15-3.3.74-4.05-.08-.52-.27-1.25-.36-1.58-.15-.58-.36-1.15-.57-1.74-.38-1.07-.8-2.23-1-3.52-.44-.37-.76-.9-.87-1.5-.54-2.92-2.2-5.82-4.11-8.76-.46-.12-.89-.36-1.22-.72-.42-.45-.67-1.03-.71-1.64-.35-.43-1.53-1.15-2.11-1.52-1.18-.73-2.2-1.36-2.76-2.36-.05-.08-.31-.4-1.54-1.08-.25-.14-.55-.39-.75-.62-.19-.05-.38-.12-.56-.22l-1.5-.78c-.15-.08-.29-.17-.42-.27h-.01c-.16-.06-.32-.12-.47-.2l-3.57-1.87-.38.11c-.24.07-.48.1-.72.1-.66,0-1.31-.25-1.79-.72-1.86-1.79-4.16-1.88-7.76-1.89-1.47,0-3,0-4.56-.21-.39-.05-.67-.08-.89-.1-.36.18-.82.35-1.52.48-1.23.23-2.66.27-4.01.27h-1.64c-.77,0-1.62,0-2.25.08-.05.03-.11.07-.16.1-.64.4-1.02.65-1.59.75l-1.33.24c-.72.12-1.41.24-2.11.4-.27.62-.77,1.27-1.64,1.82-.22.14-.46.24-.71.31-.16.14-.31.26-.43.35-.34.26-.74.43-1.17.49-.12.02-.24.05-.36.09-.27.09-.56.14-.85.14-.24,0-.49-.04-.72-.1-.07.09-.13.19-.19.28-.1.16-.2.31-.31.45-.27.36-.62.65-1.03.84-.21.22-.53.52-.99.77-.25.14-.58.26-.95.38-.02,0-.05.02-.07.02-.08.12-.17.24-.28.34-.49.5-1.09.78-1.76.78-.07,0-.13,0-.2,0-.06.03-.12.05-.19.08-.72,1.6-1.93,2.81-2.87,3.66-.42.37-.95.6-1.5.64-.36.36-.74.64-1.03.86-.12.09-.29.21-.4.31-.04.68-.36,1.32-.87,1.78-.29.25-.63.44-.99.55-.26.81-.79,1.88-2.07,2.59-.02.01-.04.02-.06.03-.06.16-.12.29-.15.36l.14-.31c.04.45.1,1.06-.09,1.74-.27.96-.95,1.54-1.82,2.28-.05.04-.09.08-.13.11,0,.1.02.19.03.29.06.73.14,1.55-.04,2.34-.12.6-.39.98-.8,1.55.01.16.03.33.05.5.07.78.15,1.66-.09,2.51-.1.38-.27.69-.45.94.27.78.15,1.5.05,1.87-.29,1.06-.52,3.53-.42,4.76ZM1081.66,77.6c.18-.63.52-1.25,1.02-1.87.2-.69.43-1.37.98-2.23.38-.6.89-.99,1.37-1.29-.05-.11-.08-.24-.11-.36-.15-.67-.03-1.37.34-1.95l1.4-2.2c.43-.67,1.13-1.1,1.92-1.18.09,0,.17-.01.26-.01.49,0,.97.14,1.38.4h.02c.19,0,.38.02.57.06.35-.32.77-.61,1.33-.77.19-.05.51-.11.89-.15.19-.27.45-.58.71-.9.18-.21.38-.43.49-.6.47-.78,1.3-1.24,2.19-1.24.17,0,.34.02.51.05.07,0,.3-.07.47-.12.47-.14,1.11-.33,1.9-.33.05,0,.23,0,.28,0,1.23.07,2.24,1,2.41,2.21l.09.64c.18-.04.36-.06.55-.06h2.8c.5,0,.97.14,1.36.39.41-.04.85-.06,1.31-.06.62,0,1.22.04,1.74.09.42.04.81.16,1.16.38.31-.02.61-.04.89-.04.46,0,.85.05,1.22.15.65.18,1.1.55,1.44.93.32.07.66.15,1.15.33,1.11.4,2.09.7,3.01.9.35-.17.73-.25,1.12-.25.32,0,.63.06.93.17.72.28,1.28.86,1.52,1.59,1.05.38,1.71,1.1,2.12,1.55.28.09.56.23.78.4,1.7,1.28,1.92,2.73,2.04,3.51,0,.04.01.09.02.13.03.03.06.05.09.08.5.42,1.13.94,1.38,1.83.24.83.5,1.61.75,2.38.4,1.21.81,2.46,1.13,3.82.32.38.52.83.6,1.34.13.91.18,3.35-.02,4.44-.1.5-.32.95-.67,1.33-.36,1.1-.7,1.63-1.19,2.39-.14.21-.29.45-.48.75-.19.31-.35.62-.52.92-.7,1.3-1.7,3.15-3.96,3.84l-.42.85c-.41.83-1.24,1.37-2.17,1.42-.28.02-.57.02-.86.02-.42,0-.84-.01-1.25-.03-.36-.01-.72-.03-1.08-.03-.25,0-.5,0-.75.03-.36.03-.98.19-1.6.34-1.11.26-1.82.42-2.41.46-2.04.15-4.14.23-6.07.23-3.33,0-6.1-.23-8.24-.67-.37-.08-.66-.21-.95-.37-.11.02-.22.02-.33.02-.45,0-.89-.12-1.29-.35-.62-.35-1.06-.95-1.23-1.64-.35-.21-1.15-.44-1.66-.59-.87-.25-1.77-.52-2.56-.99-1.19-.71-1.83-1.55-2.29-2.16-.3-.39-.46-.6-.68-.76-.1-.06-.42-.15-.63-.22-.3-.09-.58-.18-.84-.28-.18-.08-.34-.16-.48-.25-.6-.11-1.16-.43-1.56-.92-.58-.73-.73-1.71-.39-2.56-.2-.26-.37-.57-.47-.94-.21-.71-.6-1.47-1.01-2.28-.76-1.47-1.67-3.24-1.61-5.26l-.11-.14c-.46-.57-.65-1.3-.54-2.02-.03-.22-.04-.45-.02-.68.07-.63.36-1.19.8-1.6Z"/>
  <path d="M1293.93,76.67s.96-.04,1.21-.04c.19,0,.38,0,.57.02,1.02.09,1.9.76,2.23,1.74.17.51.43,1.68-.36,2.85-.05.47-.08.98-.11,1.48-.04.67-.09,1.31-.16,1.86l-.4,3.08c-.94,7.18-1.92,14.61-1.44,22.09.02.19.08.42.13.67.21.98.52,2.41.18,3.81.54,1.09.48,2.24.45,2.91-.01.21-.03.42-.02.63.02.26,0,.52-.07.76.06.25.08.5.06.76,0,.12,0,.25.02.37.03.4.06.9-.03,1.46-.36,2.23-.46,4.61-.56,7.12-.08,2.18-.17,4.43-.45,6.62,1.12,3.12.96,8.17.29,10.79.04.81.28,3.19.44,4.67.16,1.55.3,2.94.32,3.4.05,1.51.03,3.03,0,4.54-.01.7-.02,1.39-.02,2.09.22.22.4.48.53.77.34.74.3,1.59-.08,2.29.02.02.03.03.04.05.13.04.26.1.39.17.84.45,1.37,1.33,1.37,2.28v1.18s.05.05.07.08c.38.41.6.94.65,1.5.28.26.67.63,1.04,1.15.54.76,1,1.02,1.2,1.02h.01c.19-.05.39-.07.59-.07.82,0,1.61.4,2.1,1.08l.15.21,1.77-1.33,4.03-11.61c.05-1.61,0-3.23-.03-4.85-.04-2.01-.09-4.08.01-6.15.02-.44.04-.99.06-1.59.07-2.31.14-4.03.36-5.11.47-2.3.21-4.26-.09-6.53-.12-.9-.24-1.82-.32-2.78-.04-.42-.04-.84-.04-1.27-.66-.47-1.09-1.24-1.09-2.11v-1.49c0-.84.41-1.62,1.08-2.1,0-.48.03-.95.05-1.42.05-.99.09-1.92-.03-2.72-.18-.5-.52-1.46-.28-2.63-1.25-2.35-.92-4.02-.25-5.11-.32-1.69-.26-3.42-.2-5.1.06-1.7.12-3.32-.25-4.52-.25-.8-.28-1.52-.3-2.09-.01-.25-.02-.46-.04-.65l-.03-.05c-.37-.51-.67-.91-.8-1.52-.19-.85-.13-1.75-.08-2.55.03-.39.06-.79.03-1.12-.35-3.83-1.34-7.95-2.3-11.92l-.47-1.98c-.9-1.19-.63-2.44-.45-2.97.13-.39.36-.75.66-1.04.8-.77,1.77-.77,2.29-.77.36,0,.87.02,1.39.04.48.02.99.04,1.38.04h.26c.77-.14,1.3-.22,1.82-.22.4,0,.8.04,1.22.13.35-.16.85-.33,1.47-.33.14,0,.43.02.56.05.34.06.66.18.94.36.22-.04.45-.06.7-.06.32,0,.64.04.94.11,1.15.27,2.1.4,2.91.4,1.05,0,1.52-.22,1.71-.36.24-.17.5-.3.78-.38.24-.07.66-.13.9-.13.71,0,1.29.22,1.75.46.43-.28.92-.43,1.43-.43.37,0,.74.08,1.1.24.38.18.85.27,1.48.27.77,0,1.64-.13,2.56-.27.56-.09,1.11-.17,1.66-.23.21-.02.43-.03.66-.03.27,0,.55.02.82.03.11,0,.22.02.35.02.39-.28.83-.45,1.33-.46h.02c.69,0,1.28.23,1.76.72.09.03.35.07.55.1.52.08,1.25.19,2.01.55.14-.01.28-.02.41-.02.21,0,.4.02.58.04.1-.13.22-.25.35-.36.48-.41,1.09-.64,1.72-.64.12,0,.25,0,.37.03.21-.02.41-.03.6-.03.35,0,.66.04.96.12.28.08.51.19.72.32.42-.27.9-.41,1.38-.41.41-.22.9-.37,1.35-.37.04,0,.08,0,.12,0,.17.01.35.03.55.09.18-.21.43-.49.77-.73.11-.08.24-.16.37-.22.05-.34.13-.73.29-1.14-.19-.41-.35-.82-.4-1.11-.17-.96-.11-1.97-.05-2.85.03-.57.07-1.17.03-1.55-.21,0-.75.03-.79.03-.9,0-1.75-.47-2.22-1.26-.47-.78-.49-1.75-.06-2.55-.03-.03-.06-.07-.09-.11l-1.12-.22c-.66-.13-1.22-.51-1.6-1.03-.11,0-.22,0-.32,0-.98,0-2.26-.11-3.47-.81-.03,0-.07.01-.1.02-.12.12-.25.23-.39.32-.43.29-.92.43-1.42.44-.3.17-.65.3-.95.35-1.68.25-3.54.37-5.51.37s-4.03-.13-5.98-.37c-.55-.07-1.15-.1-1.75-.1-1.86,0-3.9.28-5.34.74-.26.08-.52.12-.78.12-.7,0-1.38-.28-1.88-.81-.25-.27-.88-.4-1.93-.4-.49,0-.98.03-1.47.05-.56.03-1.11.05-1.64.05-.22,0-.44,0-.65-.02-.85-.04-1.7-.09-2.56-.15-1.49-.1-3-.2-4.51-.2s-2.75.1-3.89.32c-.64.12-1.28.17-1.97.17-.62,0-1.22-.05-1.83-.1-.49-.04-.99-.09-1.53-.09-.27,0-.54.01-.84.04-.41.04-1.22.29-1.88.48-.9.27-1.75.53-2.53.62-.52.06-1.07.11-1.63.11-1.32,0-2.36-.25-3.18-.62-.37.11-.71.14-.97.14-.49,0-.91-.1-1.26-.22-.35.1-.77.19-1.26.19-.64,0-1.21-.16-1.69-.39-.44.09-.91.14-1.41.14-.95,0-1.88-.17-2.69-.33-.51-.09-1.01-.19-1.41-.22-.3.3-.71.61-1.27.76-.44.12-.91.18-1.45.18-1.13,0-2.4-.26-3.62-.51-.66-.14-1.38-.28-1.91-.36-.3.28-.69.56-1.21.7-.46.13-.95.19-1.46.19-.88,0-1.69-.19-2.35-.34-.2-.05-.44-.1-.61-.14-.11.09-.22.18-.26.22-.49.57-1.21.9-1.96.9-.06,0-.12,0-.17,0-.67-.05-1.28-.35-1.73-.83-.27-.13-.79-.28-1.08-.3-.07.01-.13.03-.14.03-.15.03-.26.04-.38.04-.11.03-.23.06-.34.08-.76.12-1.66.23-2,.25-.21.05-.43.08-.65.08-.12,0-.25,0-.37-.03-.41-.06-.82-.09-1.24-.09-.46,0-.93.04-1.41.11-.1.92-.7,1.73-1.58,2.1,0,0-.35.16-.4.19-.21.54-.55,1.17-1.06,2.11-.05.1-.11.19-.16.29.09.27.14.55.14.84v1.77c.06.06.11.12.16.18.45.54.66,1.27.58,1.97.07.17.17.42.23.73.03.13.04.24.05.36.02.02.05.04.08.06.2.04.39.1.54.17,2.08.9,12.87,1.85,16.69,1.85h.14s.04-.04.06-.06c.48-.44,1.18-.68,1.83-.68.07,0,.14,0,.22.01.19,0,.38-.01.57-.02.28-.02.56-.03.83-.03.81,0,1.53.14,2.16.43.37-.17.73-.3.99-.35.29-.05.57-.08.84-.08,1.03,0,1.88.34,2.47.6.45-.37,1.02-.57,1.62-.57h.37c.5,0,.98.14,1.4.41.15.06.42.15.66.22,1.05-.41,1.69-.64,2.36-.64.23,0,.51.04.73.1.59.16,1.49.24,2.75.24.79,0,1.61-.03,2.46-.06.93-.03,1.87-.06,2.79-.06,1.26,0,2.27.06,3.34.18Z"/>
  <path d="M280.84,94.51s0-.04,0-.06c-.13-.23-.32-.5-.5-.77-.47-.72-.91-1.4-1.14-2.04-.61-1.67-1-3.5-1.37-5.28-.34-1.6-.65-3.12-1.14-4.44-.14.02-.28.03-.43.03-.33,0-.65-.06-.96-.19-.04-.02-.08-.03-.11-.05-.3.24-.66.45-1.12.58-.09.02-.2.05-.32.06-.24.35-.51.75-.71,1.05.05.47.09,1.09-.09,1.77-.17.63-.5,1-.91,1.46-.15.17-.35.38-.5.58-.13.49-.27,1.04-.35,1.42-.38,1.69-.36,3.65-.34,5.72.02,2.09.05,4.23-.35,6.31.85,2,1.12,4.43,1.2,5.49.22,2.99.05,5.99-.12,8.89-.2,3.45-.39,6.71.09,9.62.15.9.09,1.76.03,2.6-.05.69-.1,1.34-.02,1.91.07.49.35,1.25.62,1.99.7,1.94,1.72,4.73.52,7.26.29,2-.3,4.27-.31,4.31-.13.47-.36.84-.64,1.14.77.3,1.36.96,1.56,1.81.18.75,0,1.52-.43,2.11,0,.04.02.08.02.11.12.83.06,1.68,0,2.5-.02.21-.03.47-.05.7.34.32.7.77.88,1.4.02.05.03.11.04.16.34.07.67.21.97.42.03.02.06.05.1.07.01-.28.03-.55.05-.82.06-.95.12-1.93.03-2.64-.08-.68.11-1.37.54-1.91.43-.54,1.05-.89,1.73-.96.1-.01.29-.02.39-.02.87,0,1.65.34,2.21.97.93,1.04.8,2.31.71,2.96.02.22.02.45,0,.76.13.19.27.39.38.57.24-.14.51-.24.79-.29.17-.03.33-.05.5-.05.06,0,.13,0,.19,0,.32-.57.84-1.01,1.47-1.22v-.22c0-.77.35-1.51.95-2,.33-.27.72-.45,1.13-.53.1-.19.22-.37.37-.54-.26-.65-.38-1.43-.12-2.34.09-.33.24-.61.41-.84-.04-.3-.06-.62-.04-.96-.08-.14-.17-.3-.27-.46-.45-.78-.88-1.52-1.04-2.29-.41-2-.26-3.6-.13-5.01.09-.99.18-1.85.08-2.85-.28-3-.36-6.14-.43-9.17-.1-4.23-.2-8.6-.88-12.49-.1-.6-.06-1.14-.03-1.55,0-.08.02-.15,0-.15,0,0-.02.01-.03.05-.9-1.08-1.68-2.42-1.3-4.98.06-.44.23-.84.5-1.2.06-1.45-.05-3.12-.29-4.3-.06-.06-.13-.11-.2-.17-.75-.63-1.46-1.22-1.72-2.18-.2-.71-.14-1.36-.09-1.84Z"/>
  <path d="M270.09,55.55c.02.12.03.25.03.4.28.31.57.69.79,1.15.13.07.25.15.35.22.46.09,1.17.21,1.48.26.82-.14,1.84-.16,2.45-.16.75,0,1.76.04,2.57.2-.22-1,.17-2.04,1-2.65.45-.33.99-.5,1.52-.5.13,0,.27.01.4.03.08-.22.17-.44.27-.65-.42-.91-.61-1.69-.63-2.37-.14-.14-.26-.29-.36-.45-.36-.56-.46-1.23-.34-1.87-.19-.19-.38-.41-.56-.66-.1-.14-.18-.31-.25-.48-.02,0-.03,0-.05,0-.27.02-.55.04-.81.04-.24,0-.48-.01-.7-.04-.74-.1-1.38-.52-1.78-1.1l-1.02.1c-.03.06-.06.11-.1.16-.87,1.23-1.71,1.84-2.27,2.24-.53.38-.65.46-.93,1.44-.23.81-.77,1.35-1.38,1.88.13.15.23.32.32.49.37.74.36,1.6,0,2.31Z"/>
  <path d="M426.11,166.31c.05-.64.1-1.33.09-1.88-.8-1.22-.63-2.42-.42-3.1.15-.49.09-.71-.17-1.47-.33-.94-.82-2.36-.29-4.27.18-.65.56-1.1.95-1.46,0-.5-.05-1.16-.09-1.73-.11-1.4-.24-2.94.13-4.39-1.05-2.39-.7-5.07-.4-7.29.09-.69.19-1.36.21-1.96.13-2.79.07-5.68.01-8.48-.04-2.24-.09-4.55-.04-6.86-.54-.64-1.13-1.68-.81-3.17.1-.47.33-.88.64-1.21l-.41-4c-.07-.7.15-1.39.6-1.92.29-2.21-.35-9.29-1.06-12.25-.51-.11-.91-.37-1.23-.64-.11,0-.66-.04-.91-.04-.07,0-.39.01-.46.01-.15,0-.3-.01-.45-.04-.11.02-.24.03-.36.03,0,0-.88.04-1.11.04-.17,0-.43,0-.75-.04,0,.02-.12.44-.17.65-.18.83-.76,1.52-1.56,1.84-.31.12-.64.19-.97.19-.27,0-.55-.04-.81-.13-.12.09-.26.18-.42.27-.74.4-1.57.62-2.23.8-.16.04-.3.08-.43.11-.14.54-.41,1-.67,1.36.04.46.08,1.07-.1,1.72-.3,1.11-1.07,1.72-1.55,2.08.12.22.21.48.26.77l.45,2.24c.75,4.09,1.01,8.45,1.26,12.67.15,2.53.3,5.14.56,7.61.25,2.4.27,4.94.29,7.41.03,4.26.06,8.67,1.34,12.02.14.38.2.79.16,1.19-.15,1.44.19,2.72.62,4.33l.2.77c.28,1.06-.04,2.23-.95,2.85-.46.3-.96.46-1.46.46s-.99-.16-1.43-.48c-.09-.02-.19-.03-.27-.04-.67-.08-2.22-.27-3.25-1.86-.2-.31-.32-.65-.37-.99-3.69-1.82-4.63-3.18-4.87-4.1-.03-.03-.06-.06-.09-.1-.14-.17-.27-.35-.38-.54h-1.05c-.78,0-1.49-.35-1.96-.9-.67-.05-1.3-.35-1.76-.86-.25-.28-.43-.61-.54-.96-.07-.02-.15-.04-.22-.06-.93-.25-1.48-.89-2.06-1.56-.13-.15-.25-.3-.21-.3,0,0,0,0,.01,0-.46-.29-.8-.71-1-1.2-.37-.22-.65-.47-.85-.66-.07-.07-.15-.14-.24-.21-4.78-3.24-6.43-5.64-9.44-10.34-.11-.16-.58-.53-.93-.8-.91-.71-2.14-1.67-3.12-3.25l-.24-.39c-.32-.5-.68-1.08-.98-1.74-.6-.07-1.16-.35-1.59-.8-.38-.41-.62-.93-.68-1.47-.06-.07-.11-.14-.17-.21-.28-.36-.68-.85-.96-1.48-.4-.88-.65-1.59-.81-2.15-2.09-1.34-3.98-4.01-4.23-4.89-.31-1.09-.58-1.42-1.21-2.22-.33-.42-.7-.89-1.2-1.57-.17-.17-.46-.44-.72-.82-.79-.08-1.51-.52-1.94-1.21-.05-.07-.09-.15-.13-.23-.44-.14-.84-.39-1.15-.73-3.2-3.51-6.31-6.1-9.99-8.29l-.23.08c-.27.09-.54.13-.82.13-.63,0-1.26-.23-1.74-.67l-.44-.42c-.23-.22-.62-.59-.95-.85-.28.1-.59.16-.89.16-.55,0-1.11-.17-1.58-.54-.05-.03-.08-.06-.13-.09-.31.12-.63.19-.97.19-.08,0-.16,0-.23-.01-.14-.01-.29-.04-.43-.08-.06.05-.12.09-.19.13-.43.27-.91.4-1.39.4-.53,0-1.06-.16-1.5-.48-.06,0-.16-.02-.32-.02-.27,0-.56.02-.85.04-.19.01-.38.02-.57.03l-.99,1.24c-.17.21-.37.39-.59.53-.02.5-.03.96.02,1.33.39,3.1.1,6.7-.17,10.18-.1,1.26-.2,2.49-.25,3.65-.29,5.75-.43,10.74-.44,15.72,0,.81-.37,1.52-.95,2-.04.19-.17.77-.19.9.35.74.33,1.6-.06,2.33-.06.1-.12.2-.18.29.03.17.05.34.05.49,0,.53-.26,1.22-.55,1.83.66,1.22.73,2.23.54,3.03.51,1.12.54,2.12.44,2.86-.05.39-.19.75-.4,1.07,0,.26-.03.54-.11.83-.07.27-.19.52-.34.75v.02c.14.35.25.68.33.96.36.45.55,1.01.55,1.6v.45c0,.56-.2,1.11-.54,1.55.05.2.09.43.09.68,0,.06,0,.12-.01.19.2.11.39.24.55.39.45.42.71.96.79,1.62.29.48.46,1.05.46,1.59,0,.71-.29,1.36-.76,1.83.22.87.47,1.96.3,3.58-.26,2.4-.21,5.02.13,7.67,1,.18,1.81.94,2.05,1.95l.15.58c.08.29.16.59.23.92.6.36,1.26.98,2.27,1.94.2-.05.42-.08.64-.08h1.31c.19-.34.45-.63.77-.87.44-.31.96-.47,1.49-.47.03,0,.06,0,.08,0,.17-.11.38-.22.64-.31.09-.03.2-.06.31-.08.02-.09.05-.18.08-.28.08-.24.18-.45.29-.63,0-.29.02-.62.1-.99,1.87-7.5,2.45-14.24,1.73-20.02-.14-1.12-.03-2.02.05-2.75.08-.68.11-1.02.02-1.37-1.52-5.74-1.01-18.41-.52-23.65.04-.47.14-.95.25-1.46.14-.63.26-1.19.22-1.82-.23-.42-.66-1.28-.44-2.51.13-.72.56-1.35,1.18-1.74.41-.26.89-.39,1.37-.39.24,0,.48.03.71.1l1.56.45c.51.14.96.44,1.3.85.67.83,1.37,1.66,2.07,2.5.72.86,1.44,1.73,2.17,2.62.39.47.68.87.93,1.22q.65.88,2.02,1.28c1.29.37,2.14,1.48,3.29,3.13.06.09.12.18.18.26,2.66,1.03,5.27,3.36,6.26,6.22.22.13.42.28.6.47.32.34.54.76.64,1.21.16.1.36.2.4.22.07,0,.14,0,.21,0,.76,0,1.49.34,1.99.93.39.47.6,1.05.6,1.65.27.33.82.82,1.14,1.11.85.76,1.6,1.42,1.88,2.43.11.33.94,1.12,1.49,1.64.91.85,1.93,1.82,2.7,3.08.59.97,2.46,2.86,3.82,4.24,2.07,2.1,3.09,3.15,3.5,4.14.81,1.95,3.26,3.84,5.42,5.5.57.44,1.13.88,1.65,1.3.9.74,1.49,1.55,1.96,2.2.35.49.63.88.98,1.18.56.48.89,1.18.9,1.91,1.29.92,3.24,2.97,3.48,3.83.09.33.12.65.12.94.5.43,1,.94,1.22,1.73.05.17.08.34.1.52.17-.01.35-.02.52-.02.36,0,.73.03,1.12.09.08.01.15.03.22.05.14-.11.29-.2.45-.28.36-.17.74-.25,1.12-.25.67,0,1.33.26,1.83.76l1,1c.07,0,.13,0,.2,0,.22,0,.46.02.74.06.42.07.8.24,1.12.48.11-.38.31-.73.58-1.02.49-.53,1.39-.92,2.11-.92,1.08,0,1.96.56,2.78,1.33.02-.01.03-.02.05-.03.38-.2.79-.3,1.21-.3.34,0,.68.07.99.19.07-.06.15-.12.23-.18.04-.36.16-.69.34-.99-.49-1.04-.78-2.43.37-3.61.25-.26.55-.46.89-.6l1.12-.45c.19-.08.39-.13.59-.16.08-.2.19-.38.32-.55-.8-.93-1.29-2.1-1.35-2.37-.27-1.24-.16-2.59-.06-3.91Z"/>
  <path d="M711.82,93.63c1.15.2,2.94.55,3.54,2.22.17.13.31.27.43.42.38.17.86.37,1.33.57.74.32,1.37.58,1.88.84.27.04.53.13.78.25.26.13.52.25.78.36.37.15.65.25.91.33.65.22,1.33.45,2.46,1.15.22.14.45.24.68.36.55.27,1.27.62,1.96,1.21h.06c1.05,0,1.99.27,2.75.49.47.14.96.28,1.27.28.28-.1.78-.18,1.07-.18,1.3,0,2.2.74,2.79,1.22.04.03.09.07.13.11.36.02.71.12,1.03.28l1.12.58h7.45c.42-.28.91-.43,1.43-.43h2.3c.41-.27.89-.43,1.39-.43,5.58-.09,10.89-.78,15.83-2.06.33-.63.92-1.12,1.65-1.31l1.23-.32c2.36-.6,4.59-1.16,6.75-2.13.32-.15.87-.51,1.42-.86.34-.21.69-.43,1-.62.15-.19.29-.33.38-.41.95-1.13,1.73-3.21,1.91-5.05.05-.52.25-1,.56-1.38-.02-.5-.02-1.03.06-1.54-.22-.6-.27-1.15-.28-1.59-.87.04-1.81.2-2.8.48-.42.12-.8.26-1.19.4-.32.11-.63.23-.95.33-.08.08-.17.18-.27.28-.66.7-1.47,1.56-2.46,2.11-.37.6-.96,1.08-1.8,1.44-.86.4-1.74.69-2.58.96-1.27.41-2.47.79-3.19,1.5-.49.48-1.14.73-1.8.73-.24,0-.49-.03-.72-.1-.15.05-.36.13-.52.19-.47.18-1.01.38-1.63.47-.51.08-1.04.11-1.58.11s-1.07-.03-1.61-.06c-.44-.02-.89-.05-1.32-.05-.08,0-.15,0-.22,0-.47.56-1.18.91-1.97.91h-2.06c-.1,0-.2,0-.3-.02-.09.01-.19.02-.3.02,0,0-1.6,0-1.66,0-.14.03-.29.04-.43.04-.13,0-.26,0-.39-.03-.21.02-.42.03-.62.03-.35,0-.68-.04-.95-.12-.5-.13-.88-.38-1.16-.64-.63-.07-1.43-.15-1.6-.16-.68-.05-1.34-.06-2-.06-1.67-.02-3.4-.04-5.25-.65-.46-.15-.85-.42-1.15-.77-.57-.12-1.13-.26-1.69-.4-.74-.18-1.49-.37-2.25-.51-.18-.03-.33-.05-.46-.06-.92-.11-1.68-.32-2.42-.92-1.43-.09-3.18-.81-4-2.09,0-.01-.02-.03-.02-.04-.32.14-.67.21-1.03.21-.2,0-.4-.02-.59-.07l-2.5-.59c-.41-.1-.8-.3-1.12-.58-.2-.17-.38-.36-.55-.55-.46-.06-.9-.25-1.28-.55-.03-.02-.05-.04-.08-.06-.59-.13-1.13-.45-1.5-.94-.49-.63-.66-1.45-.47-2.22l.13-.53c-.07-.09-.29-.35-.33-.4-.37-.05-.73-.18-1.05-.39-.61-.39-1.02-1.02-1.14-1.72,0,.02-.02.02-.04.02-.02,0-.03,0-.06-.01-.22-.05-.43-.13-.63-.23-.04,0-.08,0-.11,0-.68,0-1.34-.27-1.83-.76l-.74-.73c-.59-.58-.85-1.4-.73-2.2-.02-.12-.03-.24-.03-.37v-.13l-.49-.28c-.79-.47-1.28-1.32-1.28-2.23v-.25c-.27-.21-.54-.49-.78-.86l-.28-.44c-.74-1.14-1.09-1.7-1.29-2.08-.48-.42-.79-1-.87-1.65-.03-.28-.03-.59,0-1.01l-.06-.31c-.09-.47-.25-1.36-.44-1.5-.87-.68-1.22-1.85-.85-2.89.27-.77.11-1.46-.21-2.72-.3-1.15-.68-2.59-.51-4.31.2-2.08.71-4.98,1.56-7.38-.19-.78-.17-1.76.53-2.75-.05-.31-.07-.68,0-1.07.13-.81.64-1.51,1.38-1.88.03-.02.06-.03.09-.05.02-.08.03-.16.06-.24.18-.66.49-1.01,1.25-1.87.43-.49,1.59-1.81,1.81-2.28.4-.95,1.12-1.52,1.65-1.93.1-.08.2-.15.3-.23.14-.54.46-1.01.87-1.34.36-.61.97-1.02,1.76-1.1.23-.12.75-.7,1.06-1.06.57-.64,1.21-1.37,2.04-1.87.57-.34,1.14-.48,1.61-.59,0,0,.01,0,.02,0,.29-.47.71-1.17,1.52-1.7.44-.29.93-.43,1.42-.43.13,0,.27,0,.4.03.03-.03.06-.05.09-.08.42-.33.84-.67,1.37-.9.09-.14.21-.27.33-.39.49-.47,1.14-.73,1.81-.73.4-.83,1.23-1.41,2.21-1.46.34-.02.75-.06,1.18-.13.32-.21.68-.37,1.01-.43.22-.04.46-.05.71-.05h.07c.04-.07.09-.14.14-.2.51-.63,1.26-.96,2.01-.96.11,0,.23,0,.35.02.33-.22.69-.46.89-.6.67-.46.98-.67,1.45-.8.33-.09.67-.14,1.06-.14.24,0,.49.02.76.04.04,0,.08,0,.11.01.11-.06.23-.13.35-.2.33-.19.65-.36.9-.47,1.61-.71,3.92-.74,6.15-.76.36,0,.71,0,1.05-.02.33-.18.69-.3,1.03-.32.65-.04,1.28-.06,1.91-.07.45,0,.87-.02,1.27-.03l.07-.07c.48-.46,1.12-.72,1.79-.72.04,0,.67.01.67.01.33,0,1.76-.03,2.14-.03.34,0,.68,0,1.02.03.94.05,1.92.14,2.9.23,1.63.14,3.33.29,4.84.29,1,0,1.82-.06,2.52-.19.37-.07.69-.09.96-.09,1.19,0,1.98.47,2.45.85.73.16,1.8.34,2.29.38.21.02.41.02.62.02h.8c.81,0,1.78.05,2.79.43.6.23,1.09.67,1.38,1.23.16.08.43.18.62.26.49.19,1.11.43,1.72.82.45.29.75.64.91.86.64.49,1.01,1.25,1.01,2.05v.29c0,.43-.11.85-.31,1.22-.03.19-.08.41-.17.63-.4.98-1.42,2.51-1.42,2.52-.14.22-.59.75-1.01,1.24.02.36.01.79-.11,1.25-.01.05-.03.09-.04.13.12.36.16.74.11,1.13l-.07.54c.09.04.18.09.27.14.25.15.48.34.67.55.06,0,.12.02.17.03.03,0,.05,0,.08-.01.15-.03.29-.04.44-.04.17,0,.35.02.51.05.17-.04.34-.05.52-.05.22,0,.45.03.66.09.16-.04.32-.07.48-.08.01-.02.03-.03.04-.05.34-.37.78-.63,1.25-.75.03-.09.08-.18.12-.26-.04-.55-.09-1.22.1-1.88.2-.75.67-1.24,1.15-1.65.28-.66.64-1.2.96-1.7.16-.24.32-.49.47-.75l.34-.62c1.13-2.05,2.11-3.83,2.7-5.68.17-.53.39-.96.57-1.29.01-.13.02-.28.02-.44.03-.63.07-1.34.25-1.98.14-.51.39-.89.66-1.18.06-.52.13-1.14.14-1.31.06-.71.1-1.98.09-2.97-.12-.02-.23-.05-.34-.08-.25.07-.5.11-.76.11-.14,0-.29-.01-.43-.03-.12.02-.52.27-.96.54-.7.43-1,.8-1.04.98-.16.75-.63,1.37-1.27,1.72l-.35.82c-.3.7-.9,1.24-1.64,1.46-.24.07-.49.11-.74.11-.5,0-1-.15-1.43-.43l-3.59-2.39c-1.24-.33-2.38-.9-3.39-1.41-.66-.33-1.33-.68-2.02-.92-.28-.1-.5-.16-.7-.22-.53-.16-1.08-.32-2.01-.82-.16-.09-.33-.15-.5-.22-.43-.18-.98-.41-1.53-.8-.84,0-1.58-.19-2.18-.35-.34-.08-.73-.18-.87-.19-.25.07-.67.14-.92.14-1.12,0-1.92-.57-2.4-.91,0,0,0,0,0,0-.28-.03-.56-.09-.82-.21l-.83-.37h-5.76c-.36.19-.77.29-1.19.29h-1.74c-.36.19-.75.29-1.16.3-4.33.06-8.45.52-12.27,1.36-.36.46-.87.8-1.48.93l-.98.22c-1.85.4-3.6.78-5.26,1.43-.24.1-.65.33-1.06.56-1.08.59-1.68.9-2.26,1.03-.28.06-.57.09-.89.09-.19,0-.39-.01-.59-.03-.26.2-.59.42-.99.61-.17.21-.37.42-.61.62-.26.28-.59.48-.96.61-.23.35-.55.7-1.02,1-.35.22-.74.35-1.15.39-.45.35-1.01.57-1.59.6-.04,0-.22,0-.32.01-.1.16-.22.3-.36.44-.17.17-.37.31-.57.42-.03.03-.05.06-.08.09-.31.32-.7.56-1.11.69-.32.75-.97,1.33-1.8,1.52-.19.05-.39.07-.58.07-.04,0-.08,0-.12,0-.36.19-.76.29-1.16.3-.19.19-.42.45-.57.62-.56.64-1.14,1.3-2.04,1.6-.37,1.12-1.29,1.68-1.9,2.06-.08.05-.17.1-.24.15-.52.78-1.16,1.17-1.62,1.39-.54.79-1.1,1.44-1.65,2.06l-.63.74c-.3.36-.65.69-1,1.02-.16.14-.37.35-.49.48-.11.79-.57,1.47-1.23,1.86-.17.28-.38.52-.64.72-.25.73-.58,1.41-.9,1.88-.23.34-.48.62-.74.86-.02.53-.2,1.05-.53,1.48-.13.17-.28.32-.44.46-.29.98-.71,2.02-1.22,2.78-.24.36-.49.63-.75.89.05.72-.21,1.44-.72,1.97-.02.02-.04.04-.06.06-.21,1.12-.81,2.14-1.24,2.89-.17.29-.34.56-.39.66-.06.28-.11.56-.15.83-.14.81-.3,1.77-.75,2.75.08,1.04-.27,2.02-.46,2.58-.05.13-.09.25-.12.35l-.17.71c-.21.84-.37,1.47-.38,2.18.16.29.27.6.31.9.06.46.09.9.12,1.35.03.47.05.93.15,1.43.05.28.18,1.15.2,1.27.05.05.09.1.13.14.3.34.64.72.8,1.33.19.7.14,1.36.1,1.95-.01.17-.03.35-.03.46.07.48.6,2.37.76,2.72.69,1.03,1.03,1.58,1.12,2.59,0,.07.02.17.06.33.16.27.43.61.67.93.36.49.7.96.88,1.28.64,1.11.98,2.29,1.28,3.33v.02c.34.39.9.98,1.24,1.27.36.14.69.36.96.66.48.52.71,1.2.68,1.88.04.08.07.16.1.24.23.13.45.28.64.48.3.3.51.67.62,1.06l1.17.91c.58.45.93,1.13.99,1.84.79.3,1.27.87,1.64,1.32.36.05.71.19,1.03.39.46.3.79.73.99,1.22.68.41,1.3.98,1.65,1.65.87.18,1.57.79,1.88,1.58Z"/>
  <path d="M783.76,34.68l-.1-.02s-.02,0-.02.01c.04,0,.08,0,.12,0Z"/>
  <path d="M119.57,160.95l15.93-1.77c5.31-.71,6.37-5.31,6.37-10.27,0-4.6-1.77-8.14-5.66-8.14-17.17,0-28.5.71-60.89.71s-43.72-.71-60.89-.71c-3.89,0-5.66,3.54-5.66,8.14,0,4.96,1.06,9.56,6.37,10.27l15.93,1.77c13.45,1.42,18.41,6.73,18.41,24.07v160.02c0,17.35-4.96,22.66-18.41,24.07l-15.93,1.77c-5.31.71-6.37,5.31-6.37,10.27,0,4.6,1.77,8.14,5.66,8.14,17.17,0,28.5-.71,60.89-.71s43.72.71,60.89.71c3.89,0,5.66-3.54,5.66-8.14,0-4.96-1.06-9.56-6.37-10.27l-15.93-1.77c-13.45-1.42-18.41-6.73-18.41-24.07v-160.02c0-17.35,4.96-22.66,18.41-24.07Z"/>
  <path d="M364.19,371.95c-21.24-2.83-22.3-3.54-22.3-17.35v-83.2c0-36.11-15.93-60.19-52.04-60.19-20.36,0-45.14,10.8-58.77,27.26.71-6.37,3.89-13.63,3.89-18.41s-2.83-8.14-7.43-8.14c-1.42,0-3.89.35-7.43,1.42l-56.64,19.83c-6.37,2.12-7.08,5.31-7.08,10.97,0,4.25,1.42,7.08,6.73,7.08,19.83,0,22.66,3.19,22.66,17.35v86.03c0,13.81-1.06,14.52-22.3,17.35-4.96.71-7.08,3.54-7.08,9.56s1.77,8.14,6.73,8.14c11.33,0,25.49-.71,44.43-.71h.18c18.94,0,28.68.71,39.3.71,5.66,0,6.37-2.48,6.37-8.14,0-6.02-2.12-8.85-7.08-9.56-12.39-1.42-12.75-2.48-12.75-16.99v-87.45c0-13.81,16.64-26.55,32.92-26.2,21.6.35,27.61,14.52,27.61,35.05v78.59c0,14.51-.35,15.58-12.74,16.99-4.96.71-7.08,3.54-7.08,9.56,0,5.66.71,8.14,6.37,8.14,10.62,0,20.53-.71,39.47-.71h.18c18.94,0,32.92.71,44.25.71,4.96,0,6.73-2.12,6.73-8.14s-2.12-8.85-7.08-9.56Z"/>
  <path d="M694.85,295.13c-3.54,0-6.02,1.41-8.5,5.31-22.66,33.99-49.92,50.98-81.43,50.98-50.63,0-90.63-44.96-90.63-101.96,0-53.46,33.63-93.11,79.3-93.11,35.76,0,66.56,25.49,83.2,68.68,2.48,6.02,5.31,8.85,10.27,8.85s7.79-3.54,7.79-9.2v-72.57c0-6.37-3.19-9.56-9.91-9.56-10.97,0-9.56,12.74-18.06,12.74s-24.78-19.82-74.35-19.82c-72.93,0-129.22,57.35-129.22,131.7s53.46,127.45,126.03,127.45c52.04,0,100.54-38.23,113.29-88.86,1.42-5.31-2.48-10.62-7.79-10.62Z"/>
  <path d="M876.1,355.31c-6.02,0-8.14,6.02-13.45,6.02-4.25,0-7.43-3.19-7.43-10.62v-86.03c0-41.42-40.71-53.46-67.97-53.46-48.15,0-76.47,24.43-76.47,47.79,0,12.39,8.14,20.53,18.76,20.53s18.06-6.73,21.95-19.82c4.25-14.16,10.27-30.09,32.22-30.09,16.99,0,24.78,11.33,24.78,25.14v20.89c0,8.5-1.77,12.39-11.68,15.58l-47.09,15.58c-23.37,7.79-36.46,24.43-36.46,46.38,0,24.43,17.7,41.42,46.73,41.42,19.47,0,36.82-8.85,48.32-25.84,6.02,16.11,20,25.84,37.7,25.84,24.43,0,37.17-21.24,37.17-32.22,0-3.54-2.12-7.08-7.08-7.08ZM808.48,333.36c0,13.1-12.39,26.55-28.68,26.55-13.45,0-21.24-8.14-21.24-19.47,0-10.27,6.73-18.76,19.12-23.01l30.8-10.62v26.55Z"/>
  <path d="M1097.08,372.3c-21.24-2.83-22.3-3.54-22.3-17.35v-83.9c0-36.11-15.93-60.19-50.98-60.19-21.06,0-42.66,9.21-57.35,21.6v-72.22c0-10.62,2.12-15.58,2.12-21.24,0-6.02-2.48-9.2-7.43-9.2-3.19,0-8.5,1.42-17.7,4.6l-22.36,7.9s-.05-.11-.08-.15c-.22-.29-.36-.43-.46-.54-.63-.66-.86-1.15-1.12-2.04-.66-.6-1.14-1.22-1.41-1.85-.51-.47-.82-1.14-.82-1.88v-.4c-1.24-1.38-1.96-3.84-2.17-4.68l-5.22-12.21c-.45-.17-.84-.47-1.13-.86l-.27-.34c-.49-.64-1.14-1.48-1.5-2.54-.54-.47-.89-1.17-.89-1.94,0-.88-.78-2.04-1.54-3.15-.54-.8-1.1-1.63-1.51-2.52-.21-.46-.45-.9-.68-1.34-.51-.97-1.09-2.06-1.41-3.23-.17-.41-1.06-1.45-1.34-1.79-.51-.61-.82-.97-.98-1.56-.15-.55-.14-1.05-.09-1.53-.3-.51-1.1-1.45-1.55-1.99-.53-.63-1.01-1.22-1.3-1.65-.01-.02-1.31-2.39-1.41-3.59-.68-.68-1.11-1.49-1.4-2.05l-.22-.4c-1.44-2.44-2.11-4.19-2.77-6.45-.14-.16-.31-.34-.48-.52-.42-.46-.8-.9-.96-1.14-.73-1.12-1.33-2.32-1.91-3.48-.45-.9-.88-1.77-1.34-2.54-.89-.3-1.58-1.06-1.74-2.04-.12-.75,0-1.39.16-1.91-.02-.06-.05-.11-.06-.17-.06-.18-.09-.35-.12-.51-.36-.4-.86-1.03-1.17-1.8,0,0,0,0-.01,0-.29-.02-.58-.08-.85-.19-.32.13-.65.19-.98.19-.49,0-.97-.14-1.39-.41-.35-.22-.63-.52-.84-.87-.38.16-.8.27-1.26.27-.51,0-.98-.12-1.4-.35-.13.03-.26.05-.41.07-.44.43-1.09.82-1.99.94-.04.42-.19.83-.43,1.2-.11.16-.24.31-.39.45-.21.65-.63,1.34-1.48,1.9-.12.08-.24.14-.36.2.18,1.04-.29,2.12-1.25,2.67l-.36.21c-.03.51-.21,1.01-.54,1.43-.48.62-1.05,1.02-1.47,1.29-.07.45-.27.88-.56,1.24-.06.07-.12.14-.19.2-.11.4-.25.74-.37,1.01-.06.15-.15.36-.16.39.01.84-.39,1.63-1.06,2.12-.09.06-.17.12-.27.17,0,.07.01.14.01.21,0,1.88-2.55,3.9-2.57,3.91-.76.54-1.16,1.44-1.75,2.85-.11.25-.21.51-.33.77.13.67,0,1.38-.4,1.97-.35.51-.85.86-1.42,1.02-.1.17-.21.36-.27.49-.42.77-.93,1.72-2.06,2.09-.07.1-.15.2-.23.3-.15.17-.31.32-.48.46-.25.87-.64,1.69-1.07,2.47.21.93-.12,1.91-.83,2.53-.03.12-.06.25-.11.38.07.63-.09,1.27-.47,1.79-.22.31-.51.56-.83.75,0,.47-.11.93-.35,1.34-.05.43-.21.84-.47,1.2-.27.38-.63.67-1.04.85-.38.57-.84,1.06-1.23,1.49-.25.26-.49.52-.68.77-.26.37-.52.78-.79,1.2-.38.6-.77,1.21-1.2,1.78-.62.85-1.33,1.7-2.03,2.55-.9,1.09-1.75,2.11-2.4,3.1l-6.21,12.91c0,.25-.03.53-.09.81-.56,2.63-5.13,6.39-5.33,6.55-1.04.85-1.7,2.12-2.46,3.58-.46.89-.92,1.77-1.47,2.58-.36.55-.8,1.09-1.24,1.63-1.01,1.24-1.63,2.04-1.61,2.98,0,.65-.23,1.27-.66,1.75-.02.73-.24,1.42-.8,1.9-.24.2-.49.36-.75.46-.05.22-.12.47-.22.71.19.58.55,2.34-1.37,3.71-.18,1.37-.6,2.29-1.14,2.89v.34s.04.05.07.08c.38.46.59,1.05.59,1.65v.99c0,.35-.07.68-.19.98.05.12.09.24.12.37h.45c.82,0,1.59.39,2.07,1.04.53.32.91.74,1.17,1.12l.9-.52c.13-.07.26-.13.39-.18.56-.82,1.21-1.72,2.23-2.54.46-.37,1.03-.57,1.62-.57.17,0,.34.02.51.05.03,0,.05.01.08.02.19-.3.43-.57.77-.95.29-.32.67-.72.84-.97.43-.74,2.37-5.15,2.87-6.61-.27-2.15.88-3.91,1.6-5,.18-.27.45-.68.49-.75l.18-.87c.14-.74.29-1.45.52-2.25.27-.96.95-1.54,1.44-1.96.04-.03.08-.07.13-.11-.09-.72.12-1.46.61-2.03.2-.23.44-.43.7-.57.11-.19.25-.39.45-.59.33-.31.75-.54,1.2-.65.19-.32.42-.79.57-1.12.26-.56.52-1.09.81-1.54.45-.7,1.09-1.09,1.58-1.38.69-1.77,1.91-3.35,3.1-4.88.31-.4.62-.79.91-1.19.09-.34.23-.66.43-.92.21-.28.48-.54.9-.91.49-.59,1.22-.93,1.98-.93h.08c.72.02,1.44.03,2.16.03,1.16,0,2.32-.02,3.48-.04,1.19-.02,2.39-.04,3.58-.04.99,0,1.99.01,2.97.06.65.03,1.34.09,2.05.17.84.09,1.72.18,2.62.18.21,0,.43,0,.65-.02.74-.05,1.53-.08,2.32-.11,1.21-.05,2.42-.09,3.49-.21.75-.08,1.54-.12,2.35-.12,1.93,0,3.96.21,5.75.59.84-.38,1.77-.56,2.83-.56.9,0,1.77.13,2.54.25.57.09,1.12.18,1.65.18.09,0,.19,0,.28-.02.88-.11,1.84-.16,3.03-.16.61,0,1.22.01,1.83.03.59.01,1.18.03,1.77.03,1.29,0,2.26-.06,3.13-.21.24-.04.5-.06.76-.06.19,0,.87.04.87.04.09,0,.17-.01.26-.01.71,0,1.39.29,1.88.82.37.39.6.88.67,1.39h0c.25.29.48.57.64.85.43.72.98,1.63,1.41,2.62.63.43,1.1,1.14,1.25,1.89.03.16.1.3.16.45.14.37.33.84.43,1.39.32.43.79.88,1.29,1.36.36.34.71.69,1.05,1.05.52.55.77,1.3.69,2.04.14.41.53,1.16.73,1.54l.35.68c.18.37.37.73.55,1.08.21.39.41.79.61,1.19.04.02.07.06.11.08l-15.84,5.6c-5.31,1.77-7.08,4.25-7.08,9.91s2.12,7.79,7.79,7.79c17.35.35,21.6,5.31,21.6,24.43v161.43c0,13.81-1.06,14.52-22.3,17.35-4.96.71-7.08,3.54-7.08,9.56s1.77,8.14,6.73,8.14c11.33,0,25.49-.71,44.61-.71h10.44c13.45,0,23.37.71,31.33.71,3.36,0,4.6-2.12,4.6-8.14s-1.42-8.85-4.96-9.56c-14.87-2.83-15.58-3.54-15.58-17.35v-89.92c0-14.16,16.64-24.43,33.28-24.43,21.6,0,27.26,16.99,27.26,35.05v79.66c0,13.81-.71,14.51-15.58,17.35-3.54.71-4.96,3.54-4.96,9.56s1.24,8.14,4.6,8.14c7.97,0,17.88-.71,31.33-.71h10.44c19.12,0,33.28.71,44.61.71,4.96,0,6.73-2.12,6.73-8.14s-2.12-8.85-7.08-9.56ZM895.05,115.84c.17,1.42-.85,2.7-2.27,2.86-.1.01-.39.03-.49.03-.09,0-.18,0-.26-.01-.4.19-.95.37-1.64.37-.31,0-.63-.03-.95-.11-.81-.19-1.6-.28-2.42-.28s-1.73.1-2.74.3c-1.38.28-4.78.52-7.27.52-1.27,0-2.21-.06-2.89-.18-.3-.05-.64-.06-1-.06-.65,0-1.35.05-2.05.09-.81.06-1.62.11-2.37.11-.55,0-1.08-.03-1.55-.09h-10.16c-1.09,0-2.07-.68-2.43-1.71-.21-.58-.51-1.98.76-3.33.03-.14.07-.27.09-.39.27-1.15.48-1.93,1.25-3.42.12-.23.24-.44.37-.64l.02-.03c-.07-.68.12-1.36.55-1.9.41-.51.99-.84,1.63-.94,0,0,0,0,0-.01.13-.37.25-.74.36-1.12.33-1.06.7-2.27,1.45-3.45.4-.63.88-.98,1.23-1.2.07-.17.15-.35.23-.55.6-1.45,1.51-3.64,3.27-4.65.36-.69.83-1.24,1.22-1.71.18-.21.44-.52.52-.52.01,0,.02,0,.02.02,0-.69.26-1.35.75-1.84.23-.23.49-.41.78-.54.21-.29.43-.53.61-.73.05-.06.11-.11.16-.17,0-.61.21-1.21.6-1.69.11-.13.23-.25.36-.35.04-.07.07-.13.11-.19.31-.51.71-.86,1.11-1.09.27-.78.55-1.47.94-2,.36-.5.79-.88,1.14-1.19.15-.13.3-.25.42-.39.49-.61,1.24-.97,2.02-.97h.04c.8.01,1.55.38,2.03,1.02.25.21.62.53.93,1.01.43.67.73,1.49.98,2.25.64.05,1.25.34,1.7.83.51.55.74,1.27.67,1.98.59.66.81,1.58.57,2.43.76,1.11,1.14,1.74,1.32,2.39.06.24.11.5.16.77.82.35,1.42,1.11,1.55,2.04l.22,1.6s.13.15.15.17c.58.14,1.1.49,1.46.98.44.6.59,1.36.43,2.08,0,0,.01.01.01.02.19.27.45.65.6,1.17.15.53.42,1.07.7,1.64.25.51.52,1.07.75,1.69.18.2.34.4.47.59.83.43,1.63,1.3,1.74,3.1.05.21.22.78.32,1.09l.02.02c.44.36,1.03.87,1.28,1.72.05.16.13.37.18.54.11.33.19.59.2.64.11.54.08,1.01.04,1.39Z"/>
  <path d="M1185.93,211.22c-52.4,0-89.22,38.94-89.22,91.69s37.17,91.69,89.22,91.69,89.21-38.94,89.21-91.69-36.82-91.69-89.21-91.69ZM1185.93,375.84c-21.95,0-36.11-29.03-36.11-72.93s14.16-72.93,36.11-72.93,36.11,29.03,36.11,72.93-14.16,72.93-36.11,72.93Z"/>
  <path d="M1379.08,211.22c-52.4,0-89.21,38.94-89.21,91.69s37.17,91.69,89.21,91.69,89.22-38.94,89.22-91.69-36.82-91.69-89.22-91.69ZM1379.08,375.84c-21.95,0-36.11-29.03-36.11-72.93s14.16-72.93,36.11-72.93,36.11,29.03,36.11,72.93-14.16,72.93-36.11,72.93Z"/>
  <path d="M1584.06,243.79c8.85,0,12.39-9.21,12.39-15.93,0-5.66-2.83-11.33-10.27-10.97l-47.44,1.24c.35-13.98.71-24.78.71-31.68,0-4.25-2.48-7.08-6.37-7.08-3.54,0-6.02,1.77-8.14,3.54l-52.75,41.07c-4.96,3.89-7.79,6.73-7.79,10.97,0,4.6,2.83,7.79,8.5,7.79h3.89c9.91,0,12.39,1.77,12.39,11.33v83.2c0,29.38,15.22,57.35,54.87,57.35,33.63,0,49.92-25.84,49.92-38.23,0-4.25-2.48-7.79-7.08-7.79-4.25,0-7.43,3.19-9.56,5.31-4.6,4.6-10.62,7.79-19.12,7.79-12.04,0-21.24-7.79-21.24-24.07,0-36.82.53-69.21,1.24-95.06,11.33.35,37.88,1.24,45.85,1.24Z"/>
  <path d="M1683.89,277.78c-25.84-8.85-35.76-16.64-35.76-28.68s9.91-19.47,25.49-19.47c19.47,0,38.94,13.81,45.32,32.22,1.77,5.66,5.66,8.5,10.27,7.79,4.96-.71,7.08-4.6,6.37-11.33l-3.19-28.32c-.71-5.31-3.19-8.5-8.14-10.27-14.52-4.96-35.05-8.5-50.63-8.5-38.59,0-66.2,24.43-66.2,58.77,0,25.14,17.7,43.19,54.87,56.29,27.97,9.56,37.88,17.35,37.88,29.74s-9.91,20.18-26.55,20.18c-18.41,0-32.92-9.56-49.92-36.11-2.48-3.9-5.66-6.37-9.91-5.31-5.31,1.06-7.43,6.37-5.66,14.16l5.31,23.72c2.12,6.73,4.96,10.62,9.2,12.39,19.12,6.73,33.99,9.56,48.86,9.56,42.48,0,69.74-22.66,69.74-57.35,0-28.68-16.29-45.67-57.35-59.48Z"/>
</svg>